<?xml version="1.0" encoding="UTF-8" standalone="no"?>
<svg
   width="698"
   height="559"
   version="1.1"
   id="svg2"
   sodipodi:docname="logo-dark.svg"
   inkscape:version="1.4.2 (f4327f4, 2025-05-13)"
   xmlns:inkscape="http://www.inkscape.org/namespaces/inkscape"
   xmlns:sodipodi="http://sodipodi.sourceforge.net/DTD/sodipodi-0.dtd"
   xmlns="http://www.w3.org/2000/svg"
   xmlns:svg="http://www.w3.org/2000/svg">
  <defs
     id="defs3" />
  <sodipodi:namedview
     id="namedview2"
     pagecolor="#ffffff"
     bordercolor="#000000"
     borderopacity="0.25"
     inkscape:showpageshadow="2"
     inkscape:pageopacity="0.0"
     inkscape:pagecheckerboard="0"
     inkscape:deskcolor="#d1d1d1"
     inkscape:zoom="1.980322"
     inkscape:cx="349.18564"
     inkscape:cy="278.99503"
     inkscape:window-width="3440"
     inkscape:window-height="1346"
     inkscape:window-x="-11"
     inkscape:window-y="-11"
     inkscape:window-maximized="1"
     inkscape:current-layer="svg_2" />
  <clipPath
     id="cl_3">
    <rect
       x="5.9999998e-05"
       y="0"
       width="698"
       height="559.00006"
       id="svg_1" />
  </clipPath>
  <g
     id="g2">
    <title
       id="title1">Layer 1</title>
    <g
       clip-path="url(#cl_3)"
       id="svg_2"
       stroke="null">
      <path
         fill="#2a435b"
         d="m 569.05562,10.36994 c 9.41153,-0.92918 18.10704,4.11643 24.44639,10.40653 9.30093,9.22845 8.027,17.17463 8.05404,28.94892 l 0.0418,24.71359 0.15566,79.06655 -0.1704,106.54406 c -0.0205,13.78479 -0.16467,27.4499 -0.70373,41.23156 -0.28919,7.40513 0.32688,16.76342 -0.35637,23.93545 7.94672,11.28252 16.07694,22.44614 24.38904,33.48617 5.99444,8.08095 14.64162,18.80732 18.79439,27.49918 6.19844,12.97442 -4.96547,32.09385 -19.7054,34.18155 -5.46603,0.77438 -12.53123,0.47714 -18.29711,0.45994 l -29.47002,-0.0376 -118.1357,0.0258 -255.10266,-0.0399 -85.01019,-0.0235 c -13.99687,-0.004 -28.32471,0.25343 -42.13258,-0.0321 -17.76795,-0.38015 -31.11909,-19.55355 -23.87586,-35.15148 3.60347,-7.76025 11.80259,-17.59647 17.08503,-24.73565 L 97.7712,322.02208 c 0.3875,-8.40009 0.14828,-18.14792 0.13845,-26.66065 l -0.04506,-45.97485 0.0025,-138.84363 -0.07046,-49.07613 c -0.0025,-2.96854 -0.02704,-5.96353 -0.0074,-8.9316 0.08356,-12.15796 -1.53773,-21.02432 7.40519,-31.0349 4.94908,-5.46534 11.73574,-9.11526 19.195,-10.32314 7.92378,-1.22266 27.39077,-0.78909 35.94455,-0.78658 l 63.69251,-6.3e-4 237.54042,-0.01236 74.11172,-0.01893 20.85071,0.02198 c 3.88078,0.03348 8.76187,0.35418 12.52632,-0.01072 z"
         id="svg_3"
         stroke="null"
         sodipodi:nodetypes="scccccccccccccccccccccccccccccccss"
         style="fill:#ffffff;fill-opacity:0" />
      <defs
         transform="translate(-1 0) translate(17.0913 -1.74076) scale(1 0.975954) translate(-17.0913 1.74076) translate(17.0913 538.847) scale(1 0.977257) translate(-17.0913 -538.847)"
         stroke="null"
         id="defs2">
        <linearGradient
           id="gradient_0"
           x1="329.38394"
           y1="463.68378"
           x2="220.40347"
           y2="-21.497456"
           stroke="null"
           gradientTransform="scale(1.2639662,0.79116039)"
           gradientUnits="userSpaceOnUse">
          <stop
             offset="0"
             stop-color="#4F63B8"
             stroke="null"
             id="stop1" />
          <stop
             offset="1"
             stop-color="#4D8AD1"
             stroke="null"
             id="stop2" />
        </linearGradient>
      </defs>
      <path
         fill="url(#gradient_0)"
         d="m 131.43493,31.62141 305.2153,-0.04177 90.44345,-0.01846 26.25939,-0.005 c 6.05589,0.0017 17.23044,-1.27906 20.96458,3.87387 1.57296,2.16983 1.90557,5.14026 1.94735,7.73178 0.11797,7.33794 0.068,14.68784 0.0664,22.02875 l -0.0197,40.44091 0.01,116.56566 -0.005,60.26572 c 0.0139,7.9777 0.60542,25.75564 -0.60624,32.82521 -3.80541,1.89841 -6.53105,1.94612 -10.74199,1.99853 l -292.81515,0.009 -93.75321,0.007 c -16.65205,0.002 -33.37538,0.0931 -50.02908,-0.12281 -2.25785,-0.0297 -5.00315,-0.18773 -6.93986,-1.36182 -1.38289,-0.83774 -1.1322,-2.51948 -1.42549,-3.87348 -0.38832,-4.42337 -0.28838,-9.1252 -0.29165,-13.58454 l -0.006,-22.1004 0.004,-71.38788 0.0221,-107.25665 -0.0197,-34.37843 c -0.003,-6.86901 -0.0565,-13.72839 0.15156,-20.59466 0.22857,-7.51206 4.01022,-10.56938 11.56861,-11.02016 z"
         id="svg_5"
         stroke="null"
         style="fill:url(#gradient_0)" />
      <path
         fill="#ebeaea"
         d="m 303.37645,105.15199 c 0.6939,-0.0688 1.39027,-0.1056 2.08663,-0.11029 12.51075,-0.1627 23.17573,5.08433 29.51181,15.60811 4.19292,6.96318 4.41575,13.72065 4.5116,21.51062 l -49.90537,0.006 c 2.39466,9.87846 7.28476,14.67885 18.55025,14.50442 7.63704,-0.11811 10.92223,-2.53356 16.00157,-7.62493 1.79661,0.76891 3.64812,1.74979 5.39967,2.63525 2.39466,1.39623 4.84258,2.94187 7.21676,4.3913 -6.29921,8.39931 -11.94793,13.42654 -23.3273,14.71718 -10.76657,1.22102 -20.98015,-0.48731 -29.57898,-7.14387 -14.11484,-10.92583 -15.35027,-34.17138 -3.87996,-47.23654 6.16813,-7.0062 13.99195,-10.38689 23.41332,-11.25749 z"
         id="svg_6"
         stroke="null" />
      <path
         fill="#4e77c6"
         d="m 303.71316,118.42913 c 10.98285,-0.78924 15.94013,3.66697 18.61334,13.34832 l -12.75407,0.0188 c -6.61052,-0.0227 -13.22104,-0.004 -19.83156,0.0563 2.55851,-7.93937 5.05722,-11.61417 13.97229,-13.42341 z"
         id="svg_7"
         stroke="null" />
      <path
         fill="#ebeaea"
         d="m 428.10137,83.69612 c 4.72379,-0.03833 9.24359,-0.0704 13.96983,0.08839 0.0819,9.80102 -0.30804,21.08041 0.11633,30.64129 8.53166,-8.76695 19.82255,-11.56567 31.32071,-6.32569 14.15498,6.45006 12.89252,22.87166 12.90973,35.13193 0.0434,8.6019 0.008,17.2038 -0.10568,25.80492 -6.00182,0.054 -12.00527,-0.006 -18.00463,-0.18225 l 0.0958,-26.17334 c 0.009,-5.61232 0.86267,-14.70153 -3.49328,-19.06623 -4.75164,-4.60875 -14.17547,-4.14568 -18.68052,0.56475 -3.63255,3.79917 -3.68826,11.55707 -3.70301,16.51155 -0.0287,9.42322 -0.23103,18.94577 0.15074,28.35804 l -18.23239,0.061 c -0.46779,-18.93795 -0.0827,-39.35036 -0.0926,-58.44084 l -0.006,-17.18738 c -8.2e-4,-2.28013 -0.14337,-7.25025 0.24823,-9.32075 1.08141,-0.62107 2.19231,-0.46228 3.50639,-0.46541 z"
         id="svg_8"
         stroke="null" />
      <path
         fill="#ebeaea"
         d="m 405.54499,207.34387 c 1.21167,-0.10716 2.42743,-0.176 3.6432,-0.2065 15.46414,-0.32461 27.88887,8.8655 31.56566,23.29014 1.16333,4.56416 1.26738,8.51742 1.3493,13.15824 -16.37269,0.3254 -33.14436,-0.12046 -49.62519,0.0931 3.05662,10.23906 8.46776,15.14739 20.21906,14.12739 6.31641,-0.54833 10.04727,-3.27118 13.95263,-7.86585 l 4.68856,2.58988 c 2.66338,1.33444 5.19486,2.89494 7.56413,4.66272 -0.6554,0.96524 -1.34029,1.91171 -2.05468,2.83862 -7.40601,9.61251 -16.0966,11.99823 -28.0732,12.02092 -41.41304,0.0782 -45.67723,-59.37166 -3.22948,-64.70864 z"
         id="svg_9"
         stroke="null" />
      <path
         fill="#4e77c6"
         d="m 408.44759,220.01714 c 2.65355,-0.1846 6.32378,0.59135 8.63734,1.85617 5.29481,2.89337 6.32214,6.33977 7.88609,11.45617 -4.79343,0.20416 -9.8654,0.10638 -14.68586,0.0868 -5.89777,0.061 -11.79555,0.0485 -17.6925,-0.0376 2.52574,-8.47127 6.75307,-12.20082 15.85493,-13.36162 z"
         id="svg_10"
         stroke="null" />
      <path
         fill="#ebeaea"
         d="m 208.66226,185.59858 c 18.94186,0.49122 38.41213,-0.16739 57.54732,0.2417 0.23594,5.19305 0.17614,9.9911 0.0475,15.18181 -13.18499,0.0602 -26.37081,0.0548 -39.55662,-0.0156 -0.0623,6.81378 -0.0623,13.62835 -8.2e-4,20.44213 9.40498,-0.61716 26.36179,-0.29646 36.06744,-0.10638 l 0.0246,10.37359 0.0221,5.01706 c -11.90696,0.0203 -24.30876,0.22606 -36.16738,-0.11264 -0.0582,11.15345 -0.0475,22.30612 0.0311,33.45879 -5.67903,0.3606 -12.25351,0.19477 -18.00955,0.17052 -0.30394,-11.97555 -0.0803,-24.74191 -0.0803,-36.76674 -0.0606,-15.96088 -0.036,-31.92254 0.0746,-47.88421 z"
         id="svg_11"
         stroke="null" />
      <path
         fill="#ebeaea"
         d="m 206.1103,83.70942 70.88798,0.0837 c -0.10159,5.26345 -0.1278,10.52769 -0.0787,15.79114 -8.15644,0.4482 -18.61743,0.18929 -26.9705,0.23623 0.31705,4.77301 0.15238,10.85465 0.1573,15.71058 l 0.0885,27.04002 0.041,26.6145 c -6.10177,-0.11968 -12.39196,-0.0915 -18.50847,-0.13219 l -0.006,-69.30722 -25.84157,0.03051 c 0.027,-2.89259 -0.30722,-13.89664 0.23021,-16.06726 z"
         id="svg_12"
         stroke="null" />
      <path
         fill="#ebeaea"
         d="m 353.03195,208.1996 c 6.68589,-0.0391 14.45073,-0.25735 21.04814,0.10482 -7.71978,9.42635 -16.32026,20.78474 -23.41086,30.67962 2.29963,3.11161 23.78853,29.89507 23.70579,31.0058 l -1.23952,0.16817 c -5.69624,0.34261 -13.28248,0.16348 -19.15486,0.15018 -5.27678,-6.47665 -9.41563,-13.34988 -14.57608,-19.78977 -4.52062,5.68897 -9.75152,13.57672 -14.07388,19.6521 -6.77601,0.22136 -13.55775,0.20337 -20.33294,-0.054 2.42006,-2.47802 6.45322,-8.26712 8.62341,-11.191 l 14.78744,-19.77569 c -4.20111,-7.08051 -11.9766,-15.88501 -16.82901,-22.90529 -1.33865,-1.93596 -4.88272,-6.06912 -5.76014,-7.94329 5.8052,-0.37389 13.92723,-0.12124 19.86269,-0.0899 4.77376,5.75859 8.9249,12.78748 13.82073,18.53199 3.96517,-5.90095 9.24113,-12.71473 13.52908,-18.54372 z"
         id="svg_13"
         stroke="null" />
      <path
         fill="#ebeaea"
         d="m 381.64832,105.15981 c 13.25053,-1.39702 27.75861,5.07964 32.46848,17.48618 -2.28898,1.42909 -11.16145,5.45431 -14.1345,6.9405 -3.63747,-5.23842 -7.6395,-9.14397 -14.62441,-9.32935 -4.73444,-0.16583 -9.33288,1.53312 -12.7172,4.69948 -10.82392,10.07557 -4.52062,31.74029 12.12898,31.18727 9.40989,-0.31288 10.19555,-3.39242 15.9008,-9.15414 0.80696,0.0344 1.60573,0.72589 2.38647,1.22102 3.26962,1.98054 7.52234,4.95683 10.78296,6.62449 -1.03799,1.83192 -2.23819,3.57546 -3.58831,5.21105 -5.18093,6.14891 -12.73686,10.04585 -20.96212,10.81319 -50.09953,4.59936 -53.57397,-62.46919 -7.64114,-65.69969 z"
         id="svg_14"
         stroke="null" />
      <path
         fill="#ebeaea"
         d="m 490.8411,207.36186 c 1.06912,0.003 1.60819,-0.10794 2.48888,0.45603 0.38095,2.63368 0.12862,13.02605 0.16631,16.40126 -8.98225,-1.23432 -19.91676,-0.74857 -22.42366,9.81745 -1.14121,4.81212 -0.70947,11.17535 -0.69964,16.20024 l -0.0385,20.08623 -17.37955,-0.0438 -0.16631,-5.04678 0.0582,-57.05164 17.16572,0.009 c -0.0311,2.88555 -0.0115,5.77189 0.059,8.65666 4.67218,-7.39418 12.38459,-9.24722 20.7696,-9.48501 z"
         id="svg_15"
         stroke="null" />
      <path
         fill="#ebeaea"
         d="m 278.36068,208.15188 c 5.93792,0.13454 11.8914,-0.018 17.93336,0.14001 l -0.0254,46.9526 c -0.002,2.45925 0.2851,13.91463 -0.52596,14.97217 -5.83715,0.0579 -11.67512,0.0813 -17.51309,0.0688 0.18761,-5.55991 0.0172,-11.77139 0.0401,-17.39623 l 0.0909,-44.7374 z"
         id="svg_16"
         stroke="null" />
      <path
         fill="#ebeaea"
         d="m 286.80304,182.02626 c 5.41114,-0.3958 10.12838,3.4855 10.51752,8.65509 0.38996,5.16959 -3.69645,9.65631 -9.11169,10.00439 -5.38001,0.34652 -10.04072,-3.5254 -10.42822,-8.66135 -0.38669,-5.13595 3.64566,-9.60469 9.02239,-9.99814 z"
         id="svg_17"
         stroke="null" />
      <path
         fill="#ebeaea"
         d="m 115.58984,338.13079 c 35.16872,-0.42943 71.67773,0.0336 106.96115,0.0344 l 219.2343,0.002 96.02827,0.002 26.99343,-0.0407 c 4.90075,-0.007 13.08013,-0.21511 17.65891,0.49435 1.01751,0.84556 2.10957,1.84991 2.90096,2.88555 7.74682,10.13346 15.69108,20.67132 23.25274,30.89786 3.17295,4.29196 12.96216,16.43724 14.66865,20.41945 -1.0298,2.57267 -2.26277,4.69244 -5.33495,5.00611 -4.58943,0.46776 -9.33534,0.29176 -13.95099,0.2902 l -25.43686,-0.0289 -334.89341,-0.009 -109.1682,0.003 c -17.80801,0.003 -35.66355,0.043 -53.4732,0.0227 -1.5823,-0.0993 -3.69317,0.009 -5.07918,-0.85886 -3.58356,-2.24336 -3.47329,-4.91068 -1.32923,-7.93233 2.97641,-4.19496 6.01804,-8.10833 9.0808,-12.13825 l 13.15058,-17.56753 c 4.26009,-5.66472 8.41942,-11.46008 12.71229,-17.10446 1.66963,-2.19565 3.15657,-3.73972 6.02394,-4.37878 z"
         id="svg_18"
         stroke="null"
         style="fill:#000000;fill-opacity:0" />
      <path
         fill="#2a435b"
         d="m 291.16964,366.85177 77.1241,0.007 25.12555,-0.0407 c 6.0436,-7.8e-4 17.6114,-0.93786 22.20247,2.73068 2.21115,1.7537 3.53916,4.32168 3.65385,7.06409 0.086,2.71112 -0.99211,5.33776 -2.98452,7.27059 -3.31796,3.15854 -7.54856,3.33141 -11.87665,3.38773 -25.17798,0.3559 -51.38903,0.0274 -76.61698,0.0352 l -25.54009,0.009 c -5.49306,0.005 -11.17619,0.15175 -16.50787,-0.35825 -8.50053,-0.81271 -13.32345,-10.53629 -6.87514,-16.62263 3.77018,-3.55747 7.56167,-3.33532 12.29529,-3.48237 z"
         id="svg_19"
         stroke="null" />
      <path
         fill="#1f3a4d"
         d="m 134.2253,317.72229 c 16.04008,-0.33322 32.76914,-0.11811 48.85345,-0.12046 l 87.11812,-0.0141 58.83191,0.1009 c 18.66659,-0.1009 39.36901,-0.52642 58.0061,0.0313 l -0.23267,0.30193 -184.23353,0.16035 -44.95137,-0.0235 c -4.62056,0.005 -19.51861,0.26282 -23.39202,-0.43647 z"
         id="svg_20"
         stroke="null" />
      <path
         fill="#2a435b"
         d="m 344.95907,466.30984 15.60342,-0.0407 c 10.34711,-0.0211 20.13304,-0.079 28.23705,7.15013 12.12734,10.8171 11.73574,31.46026 0.92411,42.8781 -8.90278,8.38288 -19.14175,8.27494 -30.51047,8.25382 -4.74345,-0.003 -9.4869,0.0196 -14.22954,0.0696 -0.38914,-19.02243 -0.027,-39.17749 -0.0246,-58.31099 z m 10.89601,48.77044 c 9.27636,-0.0446 17.77852,1.20616 24.79539,-5.07572 7.37734,-7.90026 8.09172,-22.41094 -0.30148,-30.1266 -6.14355,-5.6483 -16.72251,-3.98533 -24.52831,-4.41554 -0.39324,11.65641 -0.33262,27.91375 0.0344,39.61787 z"
         id="svg_21"
         stroke="null" />
      <path
         fill="#2a435b"
         d="m 17.29299,466.27933 c 9.16969,-0.054 22.95216,-0.91518 31.5002,1.1076 12.82493,3.03495 15.6044,21.13907 2.10613,26.75139 1.56681,0.76812 3.37211,1.59022 4.83906,2.50071 6.77904,4.20591 7.62172,11.89107 4.61409,18.58205 -6.02254,10.22185 -17.19153,9.34734 -27.74632,9.35047 l -15.28325,0.003 C 17.26096,505.54586 16.8529,485.1843 17.293,466.2792 Z m 10.66212,49.55187 c 6.58283,-0.0125 15.37411,1.05989 20.53398,-2.52339 1.83545,-2.3341 2.53451,-3.92667 2.10031,-6.95067 -1.38355,-9.63441 -15.74252,-7.26981 -22.95044,-7.50994 0.06275,5.01549 -0.07889,12.13825 0.31615,16.984 z m -0.32049,-25.29571 c 5.84477,-0.11968 14.15556,0.98558 18.44113,-2.21833 6.16862,-7.84551 -0.4487,-14.70779 -9.35418,-13.66042 -1.81234,0.21276 -7.23782,-0.006 -9.07277,-0.15488 0.0016,5.28457 0.08422,10.76548 -0.01417,16.03363 z"
         id="svg_22"
         stroke="null" />
      <path
         fill="#2a435b"
         d="m 572.60378,465.4674 c 1.26082,0.11577 2.54131,0.13141 3.80787,0.16896 l -0.0115,59.0095 c -3.10495,-0.13376 -6.76044,-0.0876 -9.908,-0.1189 l -0.002,-5.45431 c -7.53791,7.92764 -17.7351,8.60347 -26.94346,2.70486 -0.26216,-0.21667 -0.52186,-0.43569 -0.77829,-0.65862 -9.1379,-7.88384 -9.91701,-25.17681 -1.76384,-33.63948 3.50475,-3.67636 8.40959,-5.85167 13.61182,-6.03862 6.32624,-0.24952 10.27092,1.54407 14.80793,5.53722 l 0.0213,-21.32524 c 2.38729,-0.0282 4.77376,-0.0899 7.1586,-0.18538 z m -17.66219,51.25316 c 14.12713,-1.10995 15.68944,-25.15569 -0.93149,-26.60121 -9.14036,1.46116 -12.69344,8.70437 -11.09837,16.99965 1.27475,6.62762 5.21944,9.11894 12.02985,9.60156 z"
         id="svg_23"
         stroke="null" />
      <path
         fill="#2a435b"
         d="m 455.88211,481.80453 c 12.67296,-2.42405 24.99201,5.46135 27.45795,17.57691 2.46594,12.11556 -5.86173,23.83377 -18.56336,26.11937 -12.59841,2.26761 -24.74951,-5.60762 -27.19579,-17.62541 -2.44628,-12.01779 5.73065,-23.66638 18.3012,-26.07087 z m 6.76618,34.86676 c 3.5752,-0.86277 6.11242,-2.55468 7.98768,-5.64048 3.61944,-5.95649 2.55442,-15.5862 -4.06429,-19.28368 -2.79118,-1.55972 -5.31938,-1.43613 -8.36781,-1.31489 -3.37776,1.00435 -6.67606,2.71268 -8.15071,5.92129 -4.48785,9.76426 -0.29493,21.55912 12.59513,20.31776 z"
         id="svg_24"
         stroke="null" />
      <path
         fill="#2a435b"
         d="m 200.50418,481.63557 c 12.67788,-1.92031 24.58648,6.33664 26.59774,18.4436 2.01126,12.10696 -6.63592,23.47865 -19.31461,25.39896 -12.67788,1.92109 -24.58566,-6.33664 -26.59692,-18.4436 -2.01126,-12.10618 6.6351,-23.47786 19.31379,-25.39896 z m 5.79209,34.94811 c 15.24377,-4.15272 12.76144,-28.07957 -4.38298,-26.10529 -1.22642,0.35903 -3.0812,0.88624 -4.05364,1.61995 -10.3168,7.78606 -6.95542,25.86828 8.43663,24.48534 z"
         id="svg_25"
         stroke="null" />
      <path
         fill="#2a435b"
         d="m 87.37572,481.7177 c 16.72005,-0.55928 20.9228,5.59824 20.69914,20.65567 -0.10241,6.87323 0.46124,15.3797 1.14203,22.20209 -3.3368,0.0469 -6.67524,0.0282 -10.01204,-0.0571 -0.01638,-1.71381 -0.18925,-3.63412 -0.3064,-5.36514 -5.15144,5.23842 -9.55326,7.12275 -17.23536,6.24434 -4.84373,-0.5538 -7.95614,-2.3998 -10.96581,-6.0175 -1.28376,-2.21755 -2.22688,-4.83715 -2.13332,-7.38557 0.52031,-14.17902 19.08129,-13.14886 28.94013,-12.99789 -0.23431,-3.17575 -0.34736,-6.29675 -3.43429,-8.21315 -5.47586,-3.40024 -11.13441,-0.0133 -14.19398,4.36861 -1.85527,-0.21824 -7.25019,-0.52408 -8.25656,-1.86478 -0.17876,-3.83984 3.89405,-7.80562 7.20538,-9.52021 3.07931,-1.59413 5.13235,-1.86399 8.55108,-2.04938 z m -5.5242,34.47644 c 3.07136,1.28594 6.49173,1.7584 9.71957,0.61872 2.48232,-0.87294 4.45835,-2.71425 5.43244,-5.06243 0.62754,-1.52139 0.78566,-4.0041 0.71766,-5.66864 l -0.28756,-0.24796 c -5.14243,0.0931 -12.80158,-0.12124 -16.88546,3.41041 -2.24638,1.943 -0.43707,5.21809 1.30334,6.94989 z"
         id="svg_26"
         stroke="null" />
      <path
         fill="#2a435b"
         d="m 606.9,481.72396 c 5.4521,-0.26204 11.04757,1.3845 14.97505,5.07181 5.6987,5.35028 6.32296,12.33067 6.44175,19.45812 -7.53545,-0.49826 -24.81259,-0.41848 -32.34559,0.0712 1.10681,8.89523 8.37436,13.03387 17.19604,9.46858 2.58391,-1.04424 4.14458,-2.99975 5.91006,-5.00924 1.43369,0.25891 3.04761,0.6461 4.48703,0.96133 1.73681,0.4615 2.3832,0.3911 3.06481,2.01339 -0.16221,1.87807 -2.08581,4.10188 -3.32124,5.58025 -4.77622,5.72026 -13.60609,6.8615 -20.78435,5.79848 -21.64538,-3.20626 -23.30108,-34.14479 -4.23224,-41.8933 3.01647,-1.22571 5.38574,-1.39389 8.60867,-1.52061 z m 1.40173,17.12558 c 1.86051,0.0196 7.33064,0.22997 8.76678,-0.19164 0.35064,-1.38763 -0.64475,-3.47612 -1.36487,-4.67289 -2.10383,-3.49724 -6.36556,-4.457 -10.34875,-4.18479 -4.81227,1.75996 -7.31671,4.30056 -8.77743,9.01882 z"
         id="svg_27"
         stroke="null" />
      <path
         fill="#2a435b"
         d="m 636.58385,465.62463 c 3.7112,-0.0704 7.4224,-0.0587 11.13277,0.036 -0.29493,3.81325 -0.14255,9.48736 -0.13681,13.4414 -0.0328,6.81378 0.018,13.62835 0.15238,20.44057 3.69891,-4.08389 13.05719,-13.87709 17.3435,-16.90813 3.84883,-0.30819 8.51445,-0.1408 12.37558,-0.0344 -1.11991,1.22102 -2.30864,2.37947 -3.52769,3.50975 -4.57878,4.24737 -8.70944,8.86316 -13.14731,13.24428 3.19097,4.97795 9.37794,12.55125 13.1088,17.40248 l 6.16075,7.59677 c -3.36875,0.3207 -8.95357,0.2284 -12.49191,0.26595 -4.5624,-4.35531 -9.36729,-12.76166 -14.49251,-17.69425 -1.40173,1.59179 -3.89389,3.79604 -5.54222,5.49264 -0.018,4.08389 -0.0107,8.16856 0.0229,12.25245 l -10.87553,-0.0923 -0.22365,-38.14107 c -0.0295,-6.47978 -0.25888,-14.43167 0.14091,-20.81211 z"
         id="svg_28"
         stroke="null" />
      <path
         fill="#2a435b"
         d="m 247.93705,481.67859 c 10.95827,-0.47323 19.31379,1.03564 22.47691,12.16719 -3.09185,0.83852 -6.40243,1.14749 -9.59422,1.50105 l -0.22284,-0.50139 c -1.12401,-2.57111 -1.65079,-3.15776 -3.93567,-4.89738 -2.44874,-0.39188 -4.38544,-0.52095 -6.8014,-0.38954 -2.41433,0.13141 -5.99526,2.07441 -5.24729,4.71122 1.29277,4.55478 10.46509,4.16133 14.3344,5.35184 2.72728,0.83931 4.9712,1.28673 7.24953,3.02244 5.69214,3.97751 6.10586,12.36352 1.88018,17.47679 -2.99517,3.62474 -6.62445,4.74876 -11.30072,5.31743 -10.39791,0.25813 -20.97195,-0.58978 -23.60174,-12.2986 3.53096,-1.0591 6.3672,-1.2265 10.01778,-1.4064 2.63552,4.93571 5.57663,5.97135 11.48915,5.62249 4.98021,0.38563 7.84513,-6.03158 3.31468,-7.90261 -9.2231,-3.80699 -26.21842,-2.61256 -23.77051,-17.16235 1.04946,-6.23886 7.20202,-9.64067 13.71177,-10.61217 z"
         id="svg_29"
         stroke="null" />
      <path
         fill="#2a435b"
         d="m 489.72528,482.54918 c 10.71496,-0.24639 23.78526,-0.24874 34.47318,0.0438 0.18105,2.42874 0.0991,5.22356 0.0868,7.68516 -1.07322,1.8507 -5.80684,7.24556 -7.51169,9.28868 -4.44688,5.32525 -8.83068,10.69821 -13.15058,16.1181 5.81421,0.38797 15.23475,0.1408 21.27344,0.16817 0.0295,1.56754 0.4555,8.10286 -0.41126,8.92965 -11.44655,-0.38641 -23.89913,-0.004 -35.50625,-0.16583 -0.12207,-7.15326 -0.50056,-7.25651 4.28631,-12.93531 5.66019,-6.71366 11.32448,-13.53448 16.96009,-20.27787 -6.6736,-0.27768 -13.87808,-0.16426 -20.59346,-0.16974 0.059,-2.89416 0.0901,-5.78909 0.0934,-8.68482 z"
         id="svg_30"
         stroke="null" />
      <path
         fill="#2a435b"
         d="m 277.67907,482.63366 c 8.91753,-0.34104 26.36589,-0.52251 35.04583,0.0516 0.11551,2.74867 -0.059,5.301 -0.20727,8.03793 -6.03295,8.01212 -14.97423,16.73839 -20.45173,24.99378 7.04226,0.29802 14.25657,-0.15957 21.34226,0.22215 0.13108,2.09553 0.51613,6.60181 -0.0139,8.47284 l -0.75453,0.16505 -35.11055,0.005 c -0.0139,-2.75571 0.14337,-5.0726 0.33917,-7.80562 1.49349,-2.22224 4.50259,-5.44492 6.30658,-7.65778 4.88764,-5.99873 9.81133,-11.91923 14.98161,-17.69972 -5.86255,-0.48653 -15.08893,-0.15879 -21.29638,-0.23466 0.0745,-2.1714 0.44158,-6.66282 -0.18105,-8.55106 z"
         id="svg_31"
         stroke="null" />
      <path
         fill="#2a435b"
         d="m 156.65551,471.82438 c 3.06645,-0.12515 6.33279,-0.0821 9.41563,-0.0915 l 0.003,11.0197 c 3.40562,-0.0868 6.81206,-0.11498 10.21849,-0.0845 -0.004,2.89729 0.0131,5.79379 0.05,8.69107 -3.39005,-0.0196 -6.98492,-0.17756 -10.39053,-0.27768 0.007,4.90442 -0.89462,21.57476 1.58361,24.562 2.40859,1.27969 5.78636,0.81036 8.60048,0.6899 0.136,2.22068 0.12125,4.74485 0.16221,6.99056 -0.007,0.64923 -0.0385,0.58978 -0.20727,1.23354 -3.9963,1.84522 -15.41745,0.74309 -18.56172,-2.83236 -3.03778,-3.45421 -2.03501,-9.39115 -2.02109,-13.61036 l -0.0287,-16.81974 c -2.20296,-0.0227 -4.54765,-0.14001 -6.76126,-0.21354 -0.0901,-2.54686 0.0541,-5.77971 0.0918,-8.37663 l 6.90053,0.11968 c -0.0377,-3.74598 0.46533,-7.2964 0.94459,-11.00014 z"
         id="svg_32"
         stroke="null" />
      <path
         fill="#2a435b"
         d="m 429.32779,482.02511 c 1.16415,-0.13063 2.98534,-0.0563 4.20766,-0.043 0.10159,3.35096 0.11797,6.70349 0.0491,10.05602 -16.12118,-0.28394 -15.18478,6.33898 -15.16921,19.22658 0.005,4.23016 -0.29903,8.63867 0.0197,12.89073 -1.93015,-0.002 -10.25864,0.4396 -11.18603,-0.57805 0.12125,-13.55638 0.13026,-27.11433 0.0279,-40.6715 3.4302,-0.19555 7.07913,-0.0813 10.52899,-0.0415 0.0705,2.33644 0.0958,4.67445 0.0762,7.01168 3.84637,-4.93258 4.78032,-6.84272 11.44573,-7.85099 z"
         id="svg_33"
         stroke="null" />
      <path
         fill="#2a435b"
         d="m 140.29429,482.03293 c 1.3067,-0.12906 2.91161,-0.009 4.24781,0.043 -0.007,3.38303 0.0131,6.76607 0.0598,10.1491 -15.90572,-0.81662 -15.42072,6.70975 -15.06353,18.81906 0.12125,4.13786 0.0303,8.73879 0.0229,12.9095 -3.45723,0.0712 -6.81943,0.15175 -10.27994,0.0774 l -0.24659,-0.176 c -0.33835,-1.59883 -0.19089,-14.55057 -0.15812,-16.80723 0.11715,-7.99648 -0.36129,-16.26046 -0.21055,-24.19045 3.30075,-0.0853 6.86531,-0.0258 10.18654,-0.0235 0.18023,1.47915 0.24741,3.16402 0.34408,4.66585 4.5411,-3.51132 5.45046,-4.19262 11.09755,-5.46683 z"
         id="svg_34"
         stroke="null" />
      <path
         style="fill:#ffffff;stroke-width:0.504968;fill-rule:evenodd;fill-opacity:1"
         d="m 71.453026,419.88856 c -8.485033,-1.87581 -15.108286,-7.28786 -18.896444,-15.44083 -4.520341,-9.72879 -2.600096,-17.3989 7.91574,-31.61817 2.706596,-3.65979 12.26056,-16.54638 21.231031,-28.63685 l 16.309948,-21.98268 -0.02666,-141.53749 c -0.01768,-93.858805 0.146851,-142.643173 0.488415,-144.819785 0.796975,-5.078711 3.913794,-10.939515 7.989334,-15.022978 6.05186,-6.063631 12.27075,-8.821519 21.95145,-9.734798 3.89766,-0.367707 74.41717,-0.487498 227.0819,-0.385745 l 221.42864,0.147586 3.17059,1.335837 c 5.10241,2.149747 8.56861,4.470099 12.71415,8.511047 4.67903,4.561013 7.28129,9.356445 8.12585,14.974234 0.55789,3.710934 0.28652,248.265212 -0.30672,276.416712 l -0.28253,13.40584 6.66649,9.31774 c 3.66653,5.12474 11.83045,16.24841 18.1421,24.71926 12.78257,17.15561 15.37159,20.97223 18.04424,26.59999 1.63847,3.45025 1.8396,4.31531 1.84854,7.95078 0.017,6.91968 -2.88958,13.57042 -8.3136,19.02291 -3.88508,3.90552 -8.26098,6.24547 -13.09954,7.00478 -2.20348,0.34578 -92.99189,0.50314 -276.2177,0.47876 C 122.6427,420.56479 73.948222,420.44019 71.453026,419.88856 Z M 620.27372,397.25644 c 1.26454,-0.82854 3.35572,-3.62474 3.36036,-4.49318 0.007,-1.32355 -38.54019,-52.66637 -40.48922,-53.92947 -1.03387,-0.67001 -28.10235,-0.77327 -234.46419,-0.89444 -220.82425,-0.12965 -233.40071,-0.09 -235.2654,0.74235 -1.68634,0.7527 -4.65939,4.47762 -20.646714,25.86819 -10.272185,13.74387 -18.990241,25.73927 -19.373458,26.65644 -1.191048,2.85058 0.373567,5.70171 3.672824,6.69281 0.812576,0.24411 120.711908,0.39979 271.634968,0.35271 259.48446,-0.0809 270.23534,-0.12035 271.57083,-0.99541 z m -153.17797,-79.5945 c 98.15753,-0.30942 104.41398,-0.38127 106.62812,-1.22435 l 2.35219,-0.89564 0.32752,-5.14428 c 0.18013,-2.82936 0.25784,-65.02091 0.17265,-138.20345 l -0.15482,-133.05917 -1.16097,-2.356772 c -1.38392,-2.809319 -2.65538,-3.724946 -6.56247,-4.725902 -2.57736,-0.660288 -29.45444,-0.735509 -222.07636,-0.621528 l -219.14411,0.129676 -2.51133,1.289632 c -1.80768,0.92829 -2.86505,1.9187 -3.77376,3.534779 l -1.26242,2.245146 V 176.55968 c 0,134.47517 0.0239,137.95596 0.95302,138.98267 1.11175,1.22846 2.59697,1.55925 9.28257,2.06738 6.09181,0.46301 197.21868,0.49262 336.93017,0.0522 z"
         id="path3"
         sodipodi:nodetypes="sssscssssscsssscsssssssssssssssssssscsscssscsscsssss" />
      <path
         style="fill:#000000;fill-opacity:0;stroke-width:0.504968"
         d="m 73.725384,419.65746 c -9.323003,-0.68685 -17.614622,-7.12922 -21.508149,-16.71125 -3.196775,-7.8673 -1.673917,-15.10495 5.36169,-25.48234 1.318069,-1.94413 11.057508,-15.20995 21.643199,-29.47961 l 19.246711,-25.94482 0.006,-142.71462 c 0.0066,-157.349452 -0.269303,-144.737629 3.315705,-151.559904 4.54458,-8.648345 13.37598,-14.507731 24.29581,-16.119575 2.51885,-0.3718 72.18978,-0.536037 227.3921,-0.536037 h 223.76061 l 4.22457,2.016301 c 7.38254,3.523534 13.83497,9.486368 16.94336,15.657593 2.6224,5.206462 2.49711,-1.230067 2.44253,125.484642 -0.0279,64.98943 -0.20472,130.09248 -0.39277,144.67344 l -0.34196,26.51084 5.54879,7.82701 c 3.05178,4.30486 10.93403,15.11201 17.51599,24.01591 12.9786,17.55695 17.89078,24.75508 20.02079,29.33779 1.20142,2.58475 1.36674,3.54464 1.33453,7.74748 -0.0276,3.60224 -0.31167,5.55191 -1.14047,7.82701 -2.98674,8.19911 -10.24965,15.18089 -17.91542,17.22198 -2.18934,0.58293 -45.67333,0.68071 -275.03093,0.6184 C 200.61132,420.007 76.086118,419.83139 73.725391,419.65746 Z M 620.11042,397.50861 c 1.44739,-0.75001 3.52553,-3.55068 3.52553,-4.75129 0,-1.33003 -25.26119,-35.62498 -36.40433,-49.42298 l -3.90982,-4.84136 -13.29708,-0.33353 c -18.57534,-0.46593 -451.50219,-0.34891 -454.82206,0.12293 -3.38663,0.48134 -2.51752,-0.50263 -19.443031,22.01256 -16.66099,22.16331 -21.329609,28.58271 -22.362449,30.7486 -1.508136,3.16259 0.267287,6.29594 3.908427,6.89777 1.224802,0.20245 123.570813,0.33617 271.880033,0.29717 220.68577,-0.058 269.88404,-0.19057 270.92478,-0.72987 z M 514.56278,317.63865 c 44.22109,-0.30516 58.25265,-0.54818 59.66333,-1.03334 1.43133,-0.49228 1.91201,-0.97218 2.14612,-2.14275 0.16593,-0.82963 0.30166,-63.18357 0.30166,-138.56432 0,-133.492394 -0.0248,-137.104621 -0.9562,-138.929423 -1.18108,-2.314106 -2.29312,-3.343016 -4.86941,-4.50534 -1.91111,-0.862216 -11.96922,-0.908877 -222.94446,-1.034259 l -220.94306,-0.131306 -2.35693,1.494723 c -1.29632,0.822098 -2.94133,2.420466 -3.6556,3.551928 l -1.29865,2.057204 0.14021,137.970523 c 0.0771,75.88379 0.32695,138.34739 0.55521,138.80799 0.64801,1.30763 3.07925,2.06787 7.83416,2.44971 6.08519,0.48866 315.81799,0.4956 386.38362,0.009 z"
         id="path6"
         sodipodi:nodetypes="sssscsssscsssscsssssssssssscssssssscsssssscsscssscc" />
      <path
         style="fill:#ffffff;fill-opacity:1;stroke-width:0.504968"
         d="m 640.93112,524.28646 -4.16599,-0.17012 v -28.94663 -28.94662 l 2.2803,-0.31255 c 1.25416,-0.1719 3.64014,-0.17042 5.30217,0.003 l 3.02187,0.31585 v 16.92879 16.92879 l 8.79503,-8.66875 8.79503,-8.66875 h 5.96956 5.96955 l -8.27023,8.28164 -8.27023,8.28164 1.16952,1.69149 c 1.75357,2.5362 12.44316,16.40699 15.31318,19.87035 l 2.51075,3.02981 -5.92381,0.14254 c -6.83644,0.16451 -5.51806,0.97186 -11.77707,-7.2121 -2.12408,-2.77733 -4.88085,-6.2548 -6.12617,-7.72772 l -2.26422,-2.67803 -2.94545,2.91471 -2.94544,2.91471 v 6.20167 c 0,6.12517 -0.014,6.2004 -1.13618,6.09888 -0.6249,-0.0565 -3.01088,-0.17933 -5.30217,-0.2729 z"
         id="path7" />
      <path
         style="fill:#ffffff;fill-opacity:1;stroke-width:0.504968"
         d="m 600.53399,524.38687 c -8.06751,-2.17239 -13.38384,-8.19753 -14.86754,-16.84978 -1.63902,-9.55802 3.48319,-19.70738 11.88791,-23.55518 3.52924,-1.61574 9.62501,-2.39338 13.66332,-1.74303 6.7388,1.08526 12.77434,5.68705 14.89587,11.35735 0.85265,2.27891 2.06712,9.22057 2.06712,11.81522 0,0.60673 -1.14924,0.67281 -7.1958,0.41372 -3.95769,-0.16958 -11.22924,-0.16874 -16.15899,0.002 -10.20065,0.35302 -9.94779,0.20291 -7.91082,4.69601 2.1129,4.66056 5.14844,6.57053 10.41555,6.55349 4.14344,-0.0134 7.09856,-1.20748 9.99534,-4.03883 l 2.02198,-1.97631 2.80682,0.65246 c 3.43549,0.79861 4.00604,1.13118 4.00604,2.33509 0,1.01742 -2.98276,5.25263 -4.73111,6.71767 -1.85037,1.55054 -5.5113,3.24174 -8.29668,3.83273 -3.58467,0.76059 -9.34623,0.66343 -12.59901,-0.21247 z m 16.78381,-27.11925 c -0.88534,-4.28885 -4.26588,-7.06796 -9.34114,-7.67929 -2.54211,-0.30621 -3.0008,-0.19529 -5.52972,1.33721 -2.68106,1.6247 -5.15825,4.53848 -5.82111,6.84704 l -0.32623,1.13618 h 10.67849 10.67849 z"
         id="path8" />
      <path
         style="fill:#ffffff;fill-opacity:1;stroke-width:0.504968"
         d="m 549.0243,525.13217 c -4.06099,-0.55143 -9.70566,-3.4517 -11.8408,-6.08388 -3.61555,-4.45721 -5.45179,-9.79482 -5.45179,-15.8473 0,-12.09194 7.55439,-20.71278 18.71674,-21.35896 4.86095,-0.2814 8.36666,0.69302 12.23013,3.39939 l 2.88601,2.02165 v -10.5255 -10.52551 l 1.57803,-0.31561 c 2.01644,-0.40329 7.18541,-0.409 8.22755,-0.009 0.71552,0.27457 0.79876,3.32651 0.79876,29.28817 v 28.98165 h -4.7972 -4.7972 v -2.52484 c 0,-2.62267 -0.41859,-3.08837 -1.55028,-1.72478 -1.24473,1.49982 -4.81787,3.66 -7.31728,4.42375 -3.37035,1.02989 -5.52939,1.22904 -8.68267,0.80086 z m 8.20763,-8.60202 c 1.21767,-0.30661 3.14401,-1.35359 4.28078,-2.32661 3.10985,-2.66192 4.19627,-5.17244 4.43355,-10.24509 0.18384,-3.93015 0.0804,-4.52623 -1.22663,-7.06609 -2.53473,-4.92572 -8.11262,-7.82733 -12.6817,-6.597 -3.29734,0.88788 -6.73034,3.51889 -8.10688,6.21302 -2.43021,4.75635 -1.8495,12.8443 1.18079,16.44559 1.75794,2.0892 4.95397,3.46145 9.49856,4.07832 0.22418,0.0304 1.40387,-0.19553 2.62153,-0.50214 z"
         id="path9" />
      <path
         style="fill:#ffffff;fill-opacity:1;stroke-width:0.504968"
         d="m 492.7229,524.26035 -3.40854,-0.14931 v -3.16036 c 0,-4.06556 0.37633,-4.64351 12.05061,-18.50714 l 9.14232,-10.85682 -1.88576,-0.34962 c -1.03717,-0.1923 -5.69196,-0.36272 -10.34398,-0.37873 l -8.45822,-0.0291 v -4.03975 -4.03975 h 17.16893 17.16892 v 3.67501 3.67502 l -2.90357,3.57416 c -1.59696,1.96579 -6.25211,7.64039 -10.34477,12.61022 -4.09267,4.96983 -7.44439,9.20648 -7.44829,9.41478 -0.004,0.2083 4.77407,0.37873 10.61769,0.37873 h 10.62475 l -0.14666,4.16599 -0.14666,4.16599 h -14.13912 c -7.77651,0 -15.67296,-0.0672 -17.54765,-0.14932 z"
         id="path10" />
      <path
         style="fill:#ffffff;fill-opacity:1;stroke-width:0.504968"
         d="m 454.43055,524.74634 c -8.74531,-2.28291 -15.04726,-9.05322 -16.6812,-17.92094 -1.20208,-6.52394 1.04255,-13.00915 6.33558,-18.30476 15.29099,-15.29847 41.81064,-2.92977 39.05493,18.21513 -0.85578,6.56653 -5.79858,13.21481 -12.10084,16.27614 -5.66834,2.75342 -10.69434,3.27828 -16.60847,1.73443 z m 9.73293,-8.25257 c 5.12496,-1.53547 8.59914,-6.96429 8.59914,-13.43717 0,-4.73964 -1.75635,-8.50413 -5.08535,-10.8997 -2.08093,-1.49745 -2.43965,-1.58012 -6.85667,-1.58012 -4.30065,0 -4.8508,0.11743 -7.11846,1.51942 -2.91143,1.79999 -4.53194,4.58147 -5.33895,9.16385 -1.79601,10.19822 6.36027,18.06202 15.80029,15.23372 z"
         id="path11" />
      <path
         style="fill:#ffffff;fill-opacity:1;stroke-width:0.504968"
         d="m 408.89815,523.7955 -1.38866,-0.21037 v -20.16519 -20.1652 h 5.04968 5.04968 v 3.2823 c 0,1.80526 0.18054,3.28229 0.40121,3.28229 0.22066,0 1.25746,-1.1228 2.304,-2.49511 2.3477,-3.07851 5.33803,-4.60676 9.69896,-4.95682 l 3.24985,-0.26086 v 4.79344 4.79345 l -3.82327,0.28916 c -5.39521,0.40803 -8.16325,1.86353 -9.81087,5.15878 -1.22553,2.45105 -1.26727,2.88274 -1.42811,14.77033 l -0.16569,12.24548 -3.87406,-0.0757 c -2.13073,-0.0416 -4.49896,-0.17032 -5.26272,-0.28602 z"
         id="path12" />
      <path
         style="fill:#ffffff;fill-opacity:1;stroke-width:0.504968"
         d="m 345.22731,519.27408 c -0.42538,-6.4242 -0.42458,-31.07086 0.001,-43.26033 l 0.33247,-9.51335 14.43643,0.21727 c 15.57957,0.23447 17.38511,0.4896 23.18704,3.27645 4.24468,2.03885 9.11424,7.09082 11.32163,11.74572 2.212,4.66464 2.90382,7.87136 2.90382,13.45987 0,11.06746 -5.55832,20.97363 -14.19792,25.30387 -6.03472,3.02465 -7.87762,3.3017 -23.46966,3.5282 l -14.18654,0.20609 z m 23.69413,-4.1975 c 4.71011,-0.61228 8.64698,-2.13042 11.20692,-4.32163 2.71614,-2.32492 5.38436,-7.6788 6.18115,-12.40272 1.49002,-8.83381 -2.71039,-18.06173 -9.60512,-21.10163 -2.82934,-1.24746 -9.21898,-2.07535 -16.01748,-2.07535 h -5.18917 v 19.86209 c 0,10.92415 0.15149,20.01358 0.33665,20.19873 0.48705,0.48706 8.90226,0.3845 13.08705,-0.15949 z"
         id="path13" />
      <path
         style="fill:#ffffff;fill-opacity:1;stroke-width:0.504968"
         d="m 277.73261,521.75525 c 0,-1.32107 0.2122,-3.14184 0.47156,-4.04616 0.41032,-1.43072 10.10385,-13.49124 18.55774,-23.08922 2.25615,-2.56148 2.53137,-3.07972 1.79133,-3.37304 -0.48091,-0.19062 -5.24867,-0.36255 -10.59502,-0.38207 l -9.72064,-0.0355 v -4.03975 -4.03975 h 17.16892 17.16893 v 3.24943 c 0,1.78718 -0.20771,3.77549 -0.46158,4.41847 -0.25386,0.64298 -3.79419,5.03206 -7.8674,9.75351 -7.37511,8.54886 -12.36063,14.80714 -12.36987,15.52778 -0.003,0.2083 4.74479,0.37873 10.5499,0.37873 h 10.55475 l 0.34749,2.99393 c 0.64439,5.5521 2.29166,5.08556 -17.95624,5.08556 h -17.63987 z"
         id="path14" />
      <path
         style="fill:#ffffff;fill-opacity:1;stroke-width:0.504968"
         d="m 245.61094,524.41553 c -5.54132,-1.20542 -9.39184,-4.03146 -11.1163,-8.15866 -1.16355,-2.78478 -0.97826,-3.05586 2.50314,-3.66212 5.09603,-0.88744 6.00135,-0.74777 7.15443,1.10379 1.5791,2.53563 4.80486,3.89405 9.24693,3.89405 3.56953,0 3.80496,-0.0742 5.44765,-1.71689 2.47808,-2.47807 2.18397,-5.0679 -0.74767,-6.58392 -0.78358,-0.4052 -4.64424,-1.54016 -8.57923,-2.52213 -9.70172,-2.42105 -12.62277,-3.97016 -14.25238,-7.55845 -2.83348,-6.23916 0.56191,-13.08471 7.93494,-15.99784 2.44367,-0.96551 3.90874,-1.17293 8.2718,-1.17112 9.27673,0.004 13.96238,2.27948 17.07526,8.29276 l 1.68092,3.24711 -1.37612,0.36803 c -0.75687,0.20242 -2.93188,0.52133 -4.83337,0.7087 -2.85246,0.28107 -3.45725,0.21147 -3.45725,-0.3979 0,-0.40621 -0.76934,-1.62856 -1.70965,-2.71633 l -1.70964,-1.97776 h -4.81792 c -5.67148,0 -7.54898,0.90103 -7.83106,3.75818 -0.30272,3.06624 2.2031,4.46938 10.45264,5.85301 8.54295,1.43285 12.44528,3.58653 14.50198,8.0036 3.20394,6.88094 -0.53178,14.59231 -8.21942,16.96678 -3.88175,1.19895 -10.79269,1.31713 -15.61968,0.26711 z"
         id="path15" />
      <path
         style="fill:#ffffff;fill-opacity:1;stroke-width:0.504968"
         d="m 200.0288,525.12809 c -6.88783,-1.20795 -13.45374,-6.12449 -16.55256,-12.39452 -7.07805,-14.32147 3.95508,-30.95762 20.55114,-30.98774 11.34619,-0.0206 20.87032,7.77483 22.77856,18.64407 1.35285,7.70575 -2.51198,16.38452 -9.30397,20.89278 -5.02468,3.3352 -11.83554,4.8341 -17.47317,3.84541 z m 9.83374,-9.80939 c 6.44653,-3.77792 8.63885,-12.36041 4.86942,-19.06282 -2.61717,-4.65358 -7.9948,-6.84031 -14.03507,-5.70715 -2.23598,0.41947 -5.94986,3.70949 -7.41639,6.56995 -1.27945,2.49557 -1.74454,8.22424 -0.91634,11.28686 1.90033,7.02723 11.1011,10.66222 17.49838,6.91316 z"
         id="path16" />
      <path
         style="fill:#ffffff;fill-opacity:1;stroke-width:0.504968"
         d="m 164.65841,524.61821 c -3.51756,-0.69016 -6.7178,-2.52332 -7.85726,-4.50078 -0.94055,-1.63228 -1.03082,-2.81926 -1.18078,-15.52777 L 155.458,490.82927 h -3.24616 -3.24617 v -4.07033 -4.07032 l 3.45862,0.3408 3.45861,0.34081 0.35841,-5.2038 c 0.19712,-2.86208 0.47204,-5.38766 0.61093,-5.61239 0.13889,-0.22473 2.17062,-0.4086 4.51496,-0.4086 h 4.26243 v 5.30217 5.30216 h 5.30217 5.30217 v 4.17875 4.17875 l -5.35875,-0.19837 -5.35874,-0.19837 0.23458,11.04243 c 0.14583,6.86491 0.46581,11.64417 0.84579,12.63299 0.70783,1.84198 1.62543,2.18028 5.93976,2.18981 l 3.11972,0.007 0.34586,2.76817 c 0.48755,3.90221 0.081,5.11424 -1.84467,5.49938 -2.11295,0.42258 -6.73868,0.30961 -9.49911,-0.232 z"
         id="path17" />
      <path
         style="fill:#ffffff;fill-opacity:1;stroke-width:0.504968"
         d="m 119.17254,508.8342 c 0,-8.14991 -0.14815,-17.23934 -0.32922,-20.19874 l -0.32923,-5.38072 h 5.12643 5.12642 v 2.27236 c 0,1.2498 0.10353,2.27236 0.23006,2.27236 0.12653,0 1.53353,-0.91308 3.12665,-2.02907 3.23647,-2.26715 6.84751,-3.52558 10.1166,-3.52558 h 2.18071 v 4.72431 4.72431 l -3.74551,0.28327 c -6.42996,0.4863 -9.55739,2.5594 -10.83845,7.18455 -0.33156,1.19705 -0.56061,6.59679 -0.56228,13.25542 l -0.003,11.23554 h -5.04969 -5.04968 z"
         id="path18" />
      <path
         style="fill:#ffffff;fill-opacity:1;stroke-width:0.504968"
         d="m 78.22421,524.41052 c -2.776639,-0.88873 -6.702769,-4.20927 -8.012558,-6.77667 -3.524768,-6.90912 -0.126468,-14.14204 7.868056,-16.74633 2.834826,-0.92347 4.969831,-1.17204 11.623562,-1.35329 l 8.150877,-0.22202 -0.251725,-2.09536 c -0.572641,-4.76664 -2.963474,-7.38004 -7.116596,-7.7791 -3.405148,-0.3272 -5.900693,0.60717 -8.756687,3.27862 -2.282295,2.13482 -2.514419,2.23193 -4.572838,1.91303 -1.192673,-0.18477 -2.906926,-0.56489 -3.809451,-0.84472 -1.450551,-0.44973 -1.603418,-0.66536 -1.317452,-1.85833 0.766367,-3.19708 4.863677,-7.1857 9.018027,-8.7788 5.082433,-1.94901 14.51766,-1.46752 19.441285,0.99212 3.32045,1.65875 5.67968,4.8352 6.5564,8.8275 0.3212,1.46261 0.78885,8.65221 1.03924,15.97687 0.25039,7.32467 0.59062,13.74408 0.75606,14.26536 0.27993,0.88198 -0.0346,0.94778 -4.53041,0.94778 h -4.831229 l -0.0077,-1.89363 c -0.01303,-3.19175 -0.564044,-3.44229 -3.033362,-1.37924 -3.901154,3.25933 -5.772753,3.95402 -11.09802,4.11931 -3.208095,0.0996 -5.565135,-0.0969 -7.115447,-0.5931 z m 14.563861,-7.88904 c 3.022252,-1.46305 4.686009,-4.09977 5.038279,-7.98467 l 0.277785,-3.06346 h -2.229498 c -3.642447,0 -10.55537,1.0049 -12.498722,1.81689 -2.521274,1.05345 -4.096217,2.67091 -4.093991,4.20451 0.0028,1.91283 1.80354,4.53818 3.669078,5.34918 2.514525,1.09314 7.232314,0.93849 9.837069,-0.32245 z"
         id="path19" />
      <path
         style="fill:#ffffff;fill-opacity:1;stroke-width:0.504968"
         d="m 17.426119,503.79412 c -0.204865,-11.19969 -0.20687,-24.11755 -0.0045,-28.70637 l 0.368027,-8.34331 7.895353,-0.30531 c 9.051012,-0.35001 19.721957,0.27969 23.537752,1.38897 6.21892,1.80789 10.123859,7.09103 10.095992,13.65925 -0.02176,5.12885 -2.289949,8.8164 -7.240633,11.77161 l -1.700977,1.01537 2.851085,1.39604 c 5.623804,2.7537 8.347201,6.69605 8.36679,12.11163 0.02248,6.21643 -3.019815,11.03781 -8.726196,13.82912 -4.587081,2.24379 -7.177573,2.54606 -21.81987,2.54606 H 17.798602 Z M 45.130007,515.051 c 2.957369,-0.91343 3.464526,-1.26645 4.597906,-3.20041 1.958448,-3.34184 1.486657,-7.54171 -1.128667,-10.04735 -2.412409,-2.31123 -5.206019,-2.98155 -13.630185,-3.2705 l -7.700768,-0.26414 v 5.80066 c 0,3.19036 0.145989,7.19741 0.32442,8.90454 l 0.32442,3.10389 h 6.94443 c 5.555611,0 7.609202,-0.20533 10.268444,-1.02669 z m -0.899238,-25.41782 c 2.630965,-1.10701 4.246196,-3.80914 4.246196,-7.10348 0,-3.17818 -1.069557,-5.03101 -3.842105,-6.65583 -2.208525,-1.29429 -2.687879,-1.36603 -9.84407,-1.47326 l -7.522497,-0.11273 v 8.32573 8.32573 l 7.448283,-0.21845 c 5.517528,-0.16182 7.983813,-0.44378 9.514193,-1.08771 z"
         id="path20" />
      <path
         style="fill:#ffffff;fill-opacity:1;stroke-width:0.504968"
         d="m 288.33695,386.83255 c -2.79228,-0.20661 -5.45177,-0.69769 -6.36339,-1.17501 -1.83363,-0.96007 -4.61117,-3.98626 -5.28471,-5.7578 -1.8298,-4.81272 1.54354,-10.30629 7.41335,-12.07284 3.69954,-1.1134 122.35165,-1.06049 126.70973,0.0565 4.81146,1.23319 7.45322,3.84758 8.07454,7.99089 0.64002,4.26796 -2.76442,9.02027 -7.49068,10.45635 -1.6555,0.50303 -14.81952,0.66714 -60.19028,0.75036 -31.93925,0.0586 -60.2301,-0.0532 -62.86856,-0.24845 z"
         id="path21"
         sodipodi:nodetypes="sssssssss" />
      <path
         style="fill:#000000;fill-opacity:0;stroke-width:0.504968"
         d="m 182.11939,397.42573 -105.965082,-0.2681 -1.211954,-1.5149 c -0.666574,-0.8332 -1.213082,-1.9718 -1.214462,-2.53024 -0.0014,-0.55843 1.061633,-2.60158 2.36225,-4.54035 2.536589,-3.78117 27.352618,-36.87922 33.351418,-44.48202 l 3.62206,-4.59054 8.73535,-0.33135 c 4.80445,-0.18225 110.32198,-0.33205 234.48341,-0.3329 l 225.74807,-0.002 1.54621,1.64114 c 2.175,2.30849 23.7727,30.75563 34.30079,45.17882 4.67065,6.39871 5.06533,7.7148 3.02501,10.08706 l -1.21854,1.41682 -27.6909,0.32826 c -31.4315,0.37259 -251.59708,0.34028 -409.87363,-0.0602 z m 225.28619,-10.08467 c 4.29187,-0.35554 5.53944,-0.65641 7.15494,-1.7255 4.03939,-2.67315 5.54491,-5.98996 4.84312,-10.66987 -0.44131,-2.94284 -2.66859,-5.56114 -6.08334,-7.15131 l -2.52852,-1.17747 -63.27237,-0.005 c -69.28445,-0.005 -64.02606,-0.22617 -68.15031,2.86126 -5.57043,4.17005 -4.57092,13.31314 1.79211,16.39343 1.57839,0.76409 3.75125,1.22364 6.88695,1.45658 6.78203,0.5038 113.29905,0.5197 119.35742,0.0178 z"
         id="path24" />
      <path
         style="opacity:0;fill:#000000;fill-opacity:0;stroke-width:0.504968"
         d="m 182.11939,397.42573 -105.965082,-0.2681 -1.211954,-1.5149 c -0.666574,-0.8332 -1.213082,-1.9718 -1.214462,-2.53024 -0.0014,-0.55843 1.061633,-2.60158 2.36225,-4.54035 2.536589,-3.78117 27.352618,-36.87922 33.351418,-44.48202 l 3.62206,-4.59054 8.73535,-0.33135 c 4.80445,-0.18225 110.32198,-0.33205 234.48341,-0.3329 l 225.74807,-0.002 1.54621,1.64114 c 2.175,2.30849 23.7727,30.75563 34.30079,45.17882 4.67065,6.39871 5.06533,7.7148 3.02501,10.08706 l -1.21854,1.41682 -27.6909,0.32826 c -31.4315,0.37259 -251.59708,0.34028 -409.87363,-0.0602 z m 225.28619,-10.08467 c 4.29187,-0.35554 5.53944,-0.65641 7.15494,-1.7255 4.03939,-2.67315 5.54491,-5.98996 4.84312,-10.66987 -0.44131,-2.94284 -2.66859,-5.56114 -6.08334,-7.15131 l -2.52852,-1.17747 -63.27237,-0.005 c -69.28445,-0.005 -64.02606,-0.22617 -68.15031,2.86126 -5.57043,4.17005 -4.57092,13.31314 1.79211,16.39343 1.57839,0.76409 3.75125,1.22364 6.88695,1.45658 6.78203,0.5038 113.29905,0.5197 119.35742,0.0178 z"
         id="path25" />
      <path
         style="fill:#000000;fill-opacity:0;stroke-width:0.504968"
         d="m 285.34324,386.25156 c -4.66602,-0.80572 -8.75828,-5.01352 -8.75828,-9.00554 0,-4.32052 4.12231,-8.63317 8.8748,-9.28457 4.27036,-0.58532 77.74369,-0.92901 101.62716,-0.47539 23.25613,0.44171 23.81294,0.47589 26.14585,1.60523 7.30275,3.53521 7.07632,12.34007 -0.42112,16.37497 l -2.01987,1.08704 -61.35366,0.0858 c -36.31348,0.0508 -62.47243,-0.10738 -64.09488,-0.38754 z"
         id="path26" />
      <path
         style="fill:#000000;fill-opacity:0;stroke-width:0.504968"
         d="M 181.87104,397.4223 76.162596,397.15763 74.94399,395.74081 c -1.508838,-1.75426 -1.534309,-2.99348 -0.109775,-5.34065 2.160369,-3.55958 32.645575,-44.18632 37.178345,-49.5465 l 1.49458,-1.76739 234.182,-0.13774 c 223.57247,-0.13149 234.22739,-0.0972 235.1841,0.75746 1.76113,1.57326 30.02072,38.66401 36.64465,48.09615 2.94386,4.19187 3.22427,5.79952 1.38482,7.93867 l -1.21829,1.41682 -27.18618,0.32211 c -30.97754,0.36702 -253.53218,0.33589 -410.6272,-0.0574 z m 229.99835,-10.5746 c 4.407,-1.3511 7.73716,-5.60734 7.73716,-9.8888 0,-4.16955 -2.63525,-7.64596 -7.23529,-9.54475 -1.75638,-0.72499 -8.22938,-0.80404 -63.62602,-0.777 -33.91889,0.0165 -62.75809,0.20898 -64.0871,0.42761 -4.86081,0.79963 -8.9454,5.36288 -8.9454,9.99368 0,3.72733 2.82127,7.87679 6.3121,9.28371 2.88934,1.1645 12.40984,1.33325 69.93812,1.23963 45.02403,-0.0733 58.28084,-0.23571 59.90643,-0.73408 z"
         id="path27" />
      <path
         style="fill:#000000;fill-opacity:0;stroke-width:0.504968"
         d="M 181.87104,397.4223 76.162596,397.15763 74.94399,395.74081 c -1.508838,-1.75426 -1.534309,-2.99348 -0.109775,-5.34065 2.160369,-3.55958 32.645575,-44.18632 37.178345,-49.5465 l 1.49458,-1.76739 234.182,-0.13774 c 223.57247,-0.13149 234.22739,-0.0972 235.1841,0.75746 1.76113,1.57326 30.02072,38.66401 36.64465,48.09615 2.94386,4.19187 3.22427,5.79952 1.38482,7.93867 l -1.21829,1.41682 -27.18618,0.32211 c -30.97754,0.36702 -253.53218,0.33589 -410.6272,-0.0574 z m 229.99835,-10.5746 c 4.407,-1.3511 7.73716,-5.60734 7.73716,-9.8888 0,-4.16955 -2.63525,-7.64596 -7.23529,-9.54475 -1.75638,-0.72499 -8.22938,-0.80404 -63.62602,-0.777 -33.91889,0.0165 -62.75809,0.20898 -64.0871,0.42761 -4.86081,0.79963 -8.9454,5.36288 -8.9454,9.99368 0,3.72733 2.82127,7.87679 6.3121,9.28371 2.88934,1.1645 12.40984,1.33325 69.93812,1.23963 45.02403,-0.0733 58.28084,-0.23571 59.90643,-0.73408 z"
         id="path28" />
      <path
         style="fill:#000000;fill-opacity:0;stroke-width:0.504968"
         d="M 181.87104,397.4223 76.162596,397.15763 74.94399,395.74081 c -1.508838,-1.75426 -1.534309,-2.99348 -0.109775,-5.34065 2.160369,-3.55958 32.645575,-44.18632 37.178345,-49.5465 l 1.49458,-1.76739 234.182,-0.13774 c 223.57247,-0.13149 234.22739,-0.0972 235.1841,0.75746 1.76113,1.57326 30.02072,38.66401 36.64465,48.09615 2.94386,4.19187 3.22427,5.79952 1.38482,7.93867 l -1.21829,1.41682 -27.18618,0.32211 c -30.97754,0.36702 -253.53218,0.33589 -410.6272,-0.0574 z m 229.99835,-10.5746 c 4.407,-1.3511 7.73716,-5.60734 7.73716,-9.8888 0,-4.16955 -2.63525,-7.64596 -7.23529,-9.54475 -1.75638,-0.72499 -8.22938,-0.80404 -63.62602,-0.777 -33.91889,0.0165 -62.75809,0.20898 -64.0871,0.42761 -4.86081,0.79963 -8.9454,5.36288 -8.9454,9.99368 0,3.72733 2.82127,7.87679 6.3121,9.28371 2.88934,1.1645 12.40984,1.33325 69.93812,1.23963 45.02403,-0.0733 58.28084,-0.23571 59.90643,-0.73408 z"
         id="path29" />
      <path
         style="fill:#000000;fill-opacity:0;stroke-width:0.504968"
         d="M 181.87104,397.4223 76.162596,397.15763 74.94399,395.74081 c -1.508838,-1.75426 -1.534309,-2.99348 -0.109775,-5.34065 2.160369,-3.55958 32.645575,-44.18632 37.178345,-49.5465 l 1.49458,-1.76739 234.182,-0.13774 c 223.57247,-0.13149 234.22739,-0.0972 235.1841,0.75746 1.76113,1.57326 30.02072,38.66401 36.64465,48.09615 2.94386,4.19187 3.22427,5.79952 1.38482,7.93867 l -1.21829,1.41682 -27.18618,0.32211 c -30.97754,0.36702 -253.53218,0.33589 -410.6272,-0.0574 z m 229.99835,-10.5746 c 4.407,-1.3511 7.73716,-5.60734 7.73716,-9.8888 0,-4.16955 -2.63525,-7.64596 -7.23529,-9.54475 -1.75638,-0.72499 -8.22938,-0.80404 -63.62602,-0.777 -33.91889,0.0165 -62.75809,0.20898 -64.0871,0.42761 -4.86081,0.79963 -8.9454,5.36288 -8.9454,9.99368 0,3.72733 2.82127,7.87679 6.3121,9.28371 2.88934,1.1645 12.40984,1.33325 69.93812,1.23963 45.02403,-0.0733 58.28084,-0.23571 59.90643,-0.73408 z"
         id="path30" />
      <path
         style="fill:#000000;fill-opacity:0;stroke-width:0.504968"
         d="M 181.87104,397.4223 76.162596,397.15763 74.94399,395.74081 c -1.508838,-1.75426 -1.534309,-2.99348 -0.109775,-5.34065 2.160369,-3.55958 32.645575,-44.18632 37.178345,-49.5465 l 1.49458,-1.76739 234.182,-0.13774 c 223.57247,-0.13149 234.22739,-0.0972 235.1841,0.75746 1.76113,1.57326 30.02072,38.66401 36.64465,48.09615 2.94386,4.19187 3.22427,5.79952 1.38482,7.93867 l -1.21829,1.41682 -27.18618,0.32211 c -30.97754,0.36702 -253.53218,0.33589 -410.6272,-0.0574 z m 229.99835,-10.5746 c 4.407,-1.3511 7.73716,-5.60734 7.73716,-9.8888 0,-4.16955 -2.63525,-7.64596 -7.23529,-9.54475 -1.75638,-0.72499 -8.22938,-0.80404 -63.62602,-0.777 -33.91889,0.0165 -62.75809,0.20898 -64.0871,0.42761 -4.86081,0.79963 -8.9454,5.36288 -8.9454,9.99368 0,3.72733 2.82127,7.87679 6.3121,9.28371 2.88934,1.1645 12.40984,1.33325 69.93812,1.23963 45.02403,-0.0733 58.28084,-0.23571 59.90643,-0.73408 z"
         id="path31" />
      <path
         style="fill:#000000;fill-opacity:0;stroke-width:0.504968"
         d="M 181.87104,397.4223 76.162596,397.15763 74.94399,395.74081 c -1.508838,-1.75426 -1.534309,-2.99348 -0.109775,-5.34065 2.160369,-3.55958 32.645575,-44.18632 37.178345,-49.5465 l 1.49458,-1.76739 234.182,-0.13774 c 223.57247,-0.13149 234.22739,-0.0972 235.1841,0.75746 1.76113,1.57326 30.02072,38.66401 36.64465,48.09615 2.94386,4.19187 3.22427,5.79952 1.38482,7.93867 l -1.21829,1.41682 -27.18618,0.32211 c -30.97754,0.36702 -253.53218,0.33589 -410.6272,-0.0574 z m 229.99835,-10.5746 c 4.407,-1.3511 7.73716,-5.60734 7.73716,-9.8888 0,-4.16955 -2.63525,-7.64596 -7.23529,-9.54475 -1.75638,-0.72499 -8.22938,-0.80404 -63.62602,-0.777 -33.91889,0.0165 -62.75809,0.20898 -64.0871,0.42761 -4.86081,0.79963 -8.9454,5.36288 -8.9454,9.99368 0,3.72733 2.82127,7.87679 6.3121,9.28371 2.88934,1.1645 12.40984,1.33325 69.93812,1.23963 45.02403,-0.0733 58.28084,-0.23571 59.90643,-0.73408 z"
         id="path32" />
      <path
         style="fill:#000000;fill-opacity:0;stroke-width:0.504968"
         d="M 181.87104,397.4223 76.162596,397.15763 74.94399,395.74081 c -1.508838,-1.75426 -1.534309,-2.99348 -0.109775,-5.34065 2.160369,-3.55958 32.645575,-44.18632 37.178345,-49.5465 l 1.49458,-1.76739 234.182,-0.13774 c 223.57247,-0.13149 234.22739,-0.0972 235.1841,0.75746 1.76113,1.57326 30.02072,38.66401 36.64465,48.09615 2.94386,4.19187 3.22427,5.79952 1.38482,7.93867 l -1.21829,1.41682 -27.18618,0.32211 c -30.97754,0.36702 -253.53218,0.33589 -410.6272,-0.0574 z m 229.99835,-10.5746 c 4.407,-1.3511 7.73716,-5.60734 7.73716,-9.8888 0,-4.16955 -2.63525,-7.64596 -7.23529,-9.54475 -1.75638,-0.72499 -8.22938,-0.80404 -63.62602,-0.777 -33.91889,0.0165 -62.75809,0.20898 -64.0871,0.42761 -4.86081,0.79963 -8.9454,5.36288 -8.9454,9.99368 0,3.72733 2.82127,7.87679 6.3121,9.28371 2.88934,1.1645 12.40984,1.33325 69.93812,1.23963 45.02403,-0.0733 58.28084,-0.23571 59.90643,-0.73408 z"
         id="path33" />
      <path
         style="fill:#000000;fill-opacity:0;stroke-width:0.504968"
         d="M 181.87104,397.4223 76.162596,397.15763 74.94399,395.74081 c -1.508838,-1.75426 -1.534309,-2.99348 -0.109775,-5.34065 2.160369,-3.55958 32.645575,-44.18632 37.178345,-49.5465 l 1.49458,-1.76739 234.182,-0.13774 c 223.57247,-0.13149 234.22739,-0.0972 235.1841,0.75746 1.76113,1.57326 30.02072,38.66401 36.64465,48.09615 2.94386,4.19187 3.22427,5.79952 1.38482,7.93867 l -1.21829,1.41682 -27.18618,0.32211 c -30.97754,0.36702 -253.53218,0.33589 -410.6272,-0.0574 z m 229.99835,-10.5746 c 4.407,-1.3511 7.73716,-5.60734 7.73716,-9.8888 0,-4.16955 -2.63525,-7.64596 -7.23529,-9.54475 -1.75638,-0.72499 -8.22938,-0.80404 -63.62602,-0.777 -33.91889,0.0165 -62.75809,0.20898 -64.0871,0.42761 -4.86081,0.79963 -8.9454,5.36288 -8.9454,9.99368 0,3.72733 2.82127,7.87679 6.3121,9.28371 2.88934,1.1645 12.40984,1.33325 69.93812,1.23963 45.02403,-0.0733 58.28084,-0.23571 59.90643,-0.73408 z"
         id="path34" />
      <path
         style="fill:#000000;fill-opacity:0;stroke-width:0.504968"
         d="M 181.87104,397.4223 76.162596,397.15763 74.94399,395.74081 c -1.508838,-1.75426 -1.534309,-2.99348 -0.109775,-5.34065 2.160369,-3.55958 32.645575,-44.18632 37.178345,-49.5465 l 1.49458,-1.76739 234.182,-0.13774 c 223.57247,-0.13149 234.22739,-0.0972 235.1841,0.75746 1.76113,1.57326 30.02072,38.66401 36.64465,48.09615 2.94386,4.19187 3.22427,5.79952 1.38482,7.93867 l -1.21829,1.41682 -27.18618,0.32211 c -30.97754,0.36702 -253.53218,0.33589 -410.6272,-0.0574 z m 229.99835,-10.5746 c 4.407,-1.3511 7.73716,-5.60734 7.73716,-9.8888 0,-4.16955 -2.63525,-7.64596 -7.23529,-9.54475 -1.75638,-0.72499 -8.22938,-0.80404 -63.62602,-0.777 -33.91889,0.0165 -62.75809,0.20898 -64.0871,0.42761 -4.86081,0.79963 -8.9454,5.36288 -8.9454,9.99368 0,3.72733 2.82127,7.87679 6.3121,9.28371 2.88934,1.1645 12.40984,1.33325 69.93812,1.23963 45.02403,-0.0733 58.28084,-0.23571 59.90643,-0.73408 z"
         id="path35" />
      <path
         style="fill:#000000;fill-opacity:0;stroke-width:0.504968"
         d="M 181.87104,397.4223 76.162596,397.15763 74.94399,395.74081 c -1.508838,-1.75426 -1.534309,-2.99348 -0.109775,-5.34065 2.160369,-3.55958 32.645575,-44.18632 37.178345,-49.5465 l 1.49458,-1.76739 234.182,-0.13774 c 223.57247,-0.13149 234.22739,-0.0972 235.1841,0.75746 1.76113,1.57326 30.02072,38.66401 36.64465,48.09615 2.94386,4.19187 3.22427,5.79952 1.38482,7.93867 l -1.21829,1.41682 -27.18618,0.32211 c -30.97754,0.36702 -253.53218,0.33589 -410.6272,-0.0574 z m 229.99835,-10.5746 c 4.407,-1.3511 7.73716,-5.60734 7.73716,-9.8888 0,-4.16955 -2.63525,-7.64596 -7.23529,-9.54475 -1.75638,-0.72499 -8.22938,-0.80404 -63.62602,-0.777 -33.91889,0.0165 -62.75809,0.20898 -64.0871,0.42761 -4.86081,0.79963 -8.9454,5.36288 -8.9454,9.99368 0,3.72733 2.82127,7.87679 6.3121,9.28371 2.88934,1.1645 12.40984,1.33325 69.93812,1.23963 45.02403,-0.0733 58.28084,-0.23571 59.90643,-0.73408 z"
         id="path36" />
      <path
         style="opacity:0;fill:#000000;fill-opacity:0;stroke-width:0.504968"
         d="m 182.11939,397.42573 -105.965082,-0.2681 -1.211954,-1.5149 c -0.666574,-0.8332 -1.213082,-1.9718 -1.214462,-2.53024 -0.0014,-0.55843 1.061633,-2.60158 2.36225,-4.54035 2.536589,-3.78117 27.352618,-36.87922 33.351418,-44.48202 l 3.62206,-4.59054 8.73535,-0.33135 c 4.80445,-0.18225 110.32198,-0.33205 234.48341,-0.3329 l 225.74807,-0.002 1.54621,1.64114 c 2.175,2.30849 23.7727,30.75563 34.30079,45.17882 4.67065,6.39871 5.06533,7.7148 3.02501,10.08706 l -1.21854,1.41682 -27.6909,0.32826 c -31.4315,0.37259 -251.59708,0.34028 -409.87363,-0.0602 z m 225.28619,-10.08467 c 4.29187,-0.35554 5.53944,-0.65641 7.15494,-1.7255 4.03939,-2.67315 5.54491,-5.98996 4.84312,-10.66987 -0.44131,-2.94284 -2.66859,-5.56114 -6.08334,-7.15131 l -2.52852,-1.17747 -63.27237,-0.005 c -69.28445,-0.005 -64.02606,-0.22617 -68.15031,2.86126 -5.57043,4.17005 -4.57092,13.31314 1.79211,16.39343 1.57839,0.76409 3.75125,1.22364 6.88695,1.45658 6.78203,0.5038 113.29905,0.5197 119.35742,0.0178 z"
         id="path37" />
      <path
         style="opacity:0;fill:#ffffff;fill-opacity:1;stroke-width:0.504968"
         d="m 182.11939,397.42573 -105.965082,-0.2681 -1.211954,-1.5149 c -0.666574,-0.8332 -1.213082,-1.9718 -1.214462,-2.53024 -0.0014,-0.55843 1.061633,-2.60158 2.36225,-4.54035 2.536589,-3.78117 27.352618,-36.87922 33.351418,-44.48202 l 3.62206,-4.59054 8.73535,-0.33135 c 4.80445,-0.18225 110.32198,-0.33205 234.48341,-0.3329 l 225.74807,-0.002 1.54621,1.64114 c 2.175,2.30849 23.7727,30.75563 34.30079,45.17882 4.67065,6.39871 5.06533,7.7148 3.02501,10.08706 l -1.21854,1.41682 -27.6909,0.32826 c -31.4315,0.37259 -251.59708,0.34028 -409.87363,-0.0602 z m 225.28619,-10.08467 c 4.29187,-0.35554 5.53944,-0.65641 7.15494,-1.7255 4.03939,-2.67315 5.54491,-5.98996 4.84312,-10.66987 -0.44131,-2.94284 -2.66859,-5.56114 -6.08334,-7.15131 l -2.52852,-1.17747 -63.27237,-0.005 c -69.28445,-0.005 -64.02606,-0.22617 -68.15031,2.86126 -5.57043,4.17005 -4.57092,13.31314 1.79211,16.39343 1.57839,0.76409 3.75125,1.22364 6.88695,1.45658 6.78203,0.5038 113.29905,0.5197 119.35742,0.0178 z"
         id="path38"
         sodipodi:nodetypes="ccsssscsccssscsccssssccsssss" />
      <path
         style="opacity:0;fill:#000000;fill-opacity:0;stroke-width:0.504968"
         d="m 76.446213,397.42018 c -1.441542,-0.58244 -3.226229,-2.93192 -3.22391,-4.24415 0.0027,-1.55153 0.799354,-2.72439 14.201576,-20.90916 13.265691,-17.99953 22.867121,-30.48371 24.948231,-32.43874 l 1.32723,-1.24683 h 234.50789 234.5079 l 1.65034,1.98996 c 5.16239,6.22474 27.4264,35.72505 35.12888,46.54657 2.00013,2.81008 3.63663,5.46392 3.63663,5.89742 0,0.4335 -0.73851,1.56482 -1.64114,2.51405 l -1.64115,1.72587 -17.16892,0.32915 C 577.03524,398.07595 77.683739,397.9202 76.446213,397.42018 Z M 404.77734,386.88815 c 7.21141,-0.31954 7.72551,-0.41153 9.5944,-1.71671 4.4744,-3.12481 5.93414,-8.17147 3.617,-12.50477 -0.94827,-1.77339 -1.85512,-2.60046 -4.12982,-3.76655 l -2.91473,-1.49419 -32.64666,-0.46205 c -38.02851,-0.53822 -93.28757,0.11118 -95.76772,1.12545 -1.87758,0.76785 -4.62907,3.35401 -5.656,5.31614 -2.81545,5.37943 1.49487,12.19784 8.43801,13.34794 3.19118,0.5286 107.96525,0.66432 119.46552,0.15474 z"
         id="path39" />
      <path
         style="opacity:0;fill:#000000;fill-opacity:0;stroke-width:0.504968"
         d="m 76.446213,397.42018 c -1.441542,-0.58244 -3.226229,-2.93192 -3.22391,-4.24415 0.0027,-1.55153 0.799354,-2.72439 14.201576,-20.90916 13.265691,-17.99953 22.867121,-30.48371 24.948231,-32.43874 l 1.32723,-1.24683 h 234.50789 234.5079 l 1.65034,1.98996 c 5.16239,6.22474 27.4264,35.72505 35.12888,46.54657 2.00013,2.81008 3.63663,5.46392 3.63663,5.89742 0,0.4335 -0.73851,1.56482 -1.64114,2.51405 l -1.64115,1.72587 -17.16892,0.32915 C 577.03524,398.07595 77.683739,397.9202 76.446213,397.42018 Z M 404.77734,386.88815 c 7.21141,-0.31954 7.72551,-0.41153 9.5944,-1.71671 4.4744,-3.12481 5.93414,-8.17147 3.617,-12.50477 -0.94827,-1.77339 -1.85512,-2.60046 -4.12982,-3.76655 l -2.91473,-1.49419 -32.64666,-0.46205 c -38.02851,-0.53822 -93.28757,0.11118 -95.76772,1.12545 -1.87758,0.76785 -4.62907,3.35401 -5.656,5.31614 -2.81545,5.37943 1.49487,12.19784 8.43801,13.34794 3.19118,0.5286 107.96525,0.66432 119.46552,0.15474 z"
         id="path40" />
      <path
         style="opacity:0;fill:#000000;fill-opacity:0;stroke-width:0.504968"
         d="m 76.446213,397.42018 c -1.441542,-0.58244 -3.226229,-2.93192 -3.22391,-4.24415 0.0027,-1.55153 0.799354,-2.72439 14.201576,-20.90916 13.265691,-17.99953 22.867121,-30.48371 24.948231,-32.43874 l 1.32723,-1.24683 h 234.50789 234.5079 l 1.65034,1.98996 c 5.16239,6.22474 27.4264,35.72505 35.12888,46.54657 2.00013,2.81008 3.63663,5.46392 3.63663,5.89742 0,0.4335 -0.73851,1.56482 -1.64114,2.51405 l -1.64115,1.72587 -17.16892,0.32915 C 577.03524,398.07595 77.683739,397.9202 76.446213,397.42018 Z M 404.77734,386.88815 c 7.21141,-0.31954 7.72551,-0.41153 9.5944,-1.71671 4.4744,-3.12481 5.93414,-8.17147 3.617,-12.50477 -0.94827,-1.77339 -1.85512,-2.60046 -4.12982,-3.76655 l -2.91473,-1.49419 -32.64666,-0.46205 c -38.02851,-0.53822 -93.28757,0.11118 -95.76772,1.12545 -1.87758,0.76785 -4.62907,3.35401 -5.656,5.31614 -2.81545,5.37943 1.49487,12.19784 8.43801,13.34794 3.19118,0.5286 107.96525,0.66432 119.46552,0.15474 z"
         id="path41" />
      <path
         style="opacity:0;fill:#000000;fill-opacity:0;stroke-width:0.504968"
         d="m 76.446213,397.42018 c -1.441542,-0.58244 -3.226229,-2.93192 -3.22391,-4.24415 0.0027,-1.55153 0.799354,-2.72439 14.201576,-20.90916 13.265691,-17.99953 22.867121,-30.48371 24.948231,-32.43874 l 1.32723,-1.24683 h 234.50789 234.5079 l 1.65034,1.98996 c 5.16239,6.22474 27.4264,35.72505 35.12888,46.54657 2.00013,2.81008 3.63663,5.46392 3.63663,5.89742 0,0.4335 -0.73851,1.56482 -1.64114,2.51405 l -1.64115,1.72587 -17.16892,0.32915 C 577.03524,398.07595 77.683739,397.9202 76.446213,397.42018 Z M 404.77734,386.88815 c 7.21141,-0.31954 7.72551,-0.41153 9.5944,-1.71671 4.4744,-3.12481 5.93414,-8.17147 3.617,-12.50477 -0.94827,-1.77339 -1.85512,-2.60046 -4.12982,-3.76655 l -2.91473,-1.49419 -32.64666,-0.46205 c -38.02851,-0.53822 -93.28757,0.11118 -95.76772,1.12545 -1.87758,0.76785 -4.62907,3.35401 -5.656,5.31614 -2.81545,5.37943 1.49487,12.19784 8.43801,13.34794 3.19118,0.5286 107.96525,0.66432 119.46552,0.15474 z"
         id="path42" />
      <path
         style="opacity:0;fill:#000000;fill-opacity:0;stroke-width:0.504968"
         d="m 76.446213,397.42018 c -1.441542,-0.58244 -3.226229,-2.93192 -3.22391,-4.24415 0.0027,-1.55153 0.799354,-2.72439 14.201576,-20.90916 13.265691,-17.99953 22.867121,-30.48371 24.948231,-32.43874 l 1.32723,-1.24683 h 234.50789 234.5079 l 1.65034,1.98996 c 5.16239,6.22474 27.4264,35.72505 35.12888,46.54657 2.00013,2.81008 3.63663,5.46392 3.63663,5.89742 0,0.4335 -0.73851,1.56482 -1.64114,2.51405 l -1.64115,1.72587 -17.16892,0.32915 C 577.03524,398.07595 77.683739,397.9202 76.446213,397.42018 Z M 404.77734,386.88815 c 7.21141,-0.31954 7.72551,-0.41153 9.5944,-1.71671 4.4744,-3.12481 5.93414,-8.17147 3.617,-12.50477 -0.94827,-1.77339 -1.85512,-2.60046 -4.12982,-3.76655 l -2.91473,-1.49419 -32.64666,-0.46205 c -38.02851,-0.53822 -93.28757,0.11118 -95.76772,1.12545 -1.87758,0.76785 -4.62907,3.35401 -5.656,5.31614 -2.81545,5.37943 1.49487,12.19784 8.43801,13.34794 3.19118,0.5286 107.96525,0.66432 119.46552,0.15474 z"
         id="path43" />
      <path
         style="opacity:0;fill:#000000;fill-opacity:0;stroke-width:0.504968"
         d="m 76.446213,397.42018 c -1.441542,-0.58244 -3.226229,-2.93192 -3.22391,-4.24415 0.0027,-1.55153 0.799354,-2.72439 14.201576,-20.90916 13.265691,-17.99953 22.867121,-30.48371 24.948231,-32.43874 l 1.32723,-1.24683 h 234.50789 234.5079 l 1.65034,1.98996 c 5.16239,6.22474 27.4264,35.72505 35.12888,46.54657 2.00013,2.81008 3.63663,5.46392 3.63663,5.89742 0,0.4335 -0.73851,1.56481 -1.64114,2.51403 l -1.64115,1.72584 -11.56963,0.32998 c -17.31512,0.49385 -530.596343,0.33469 -531.832847,-0.16492 z M 404.77734,386.88815 c 7.21141,-0.31954 7.72551,-0.41153 9.5944,-1.71671 4.4744,-3.12481 5.93414,-8.17147 3.617,-12.50477 -0.94827,-1.77339 -1.85512,-2.60046 -4.12982,-3.76655 l -2.91473,-1.49419 -32.64666,-0.46205 c -38.02851,-0.53822 -93.28757,0.11118 -95.76772,1.12545 -1.87758,0.76785 -4.62907,3.35401 -5.656,5.31614 -2.81545,5.37943 1.49487,12.19784 8.43801,13.34794 3.19118,0.5286 107.96525,0.66432 119.46552,0.15474 z"
         id="path44" />
      <path
         style="opacity:0;fill:#000000;fill-opacity:0;stroke-width:0.504968"
         d="m 73.725384,419.65746 c -9.323003,-0.68685 -17.614622,-7.12922 -21.508149,-16.71125 -3.196775,-7.8673 -1.673917,-15.10495 5.36169,-25.48234 1.318069,-1.94413 11.057508,-15.20995 21.643199,-29.47961 l 19.246711,-25.94482 0.006,-142.71462 c 0.0066,-157.349452 -0.269303,-144.737629 3.315705,-151.559904 4.54458,-8.648345 13.37598,-14.507731 24.29581,-16.119575 2.51885,-0.3718 72.18978,-0.536037 227.3921,-0.536037 h 223.76061 l 4.22457,2.016301 c 7.38254,3.523534 13.83497,9.486368 16.94336,15.657593 2.6224,5.206462 2.49711,-1.230067 2.44253,125.484642 -0.0279,64.98943 -0.20472,130.09248 -0.39277,144.67344 l -0.34196,26.51084 5.54879,7.82701 c 3.05178,4.30486 10.93403,15.11201 17.51599,24.01591 12.9786,17.55695 17.89078,24.75508 20.02079,29.33779 1.20142,2.58475 1.36674,3.54464 1.33453,7.74748 -0.0276,3.60224 -0.31167,5.55191 -1.14047,7.82701 -2.98674,8.19911 -10.24965,15.18089 -17.91542,17.22198 -2.18934,0.58293 -45.67333,0.68071 -275.03093,0.6184 C 200.61132,420.007 76.086118,419.83139 73.725391,419.65746 Z M 620.11042,397.50861 c 1.44739,-0.75001 3.52553,-3.55068 3.52553,-4.75129 0,-1.33003 -25.26119,-35.62497 -36.40428,-49.42291 l -3.90977,-4.8413 -13.75791,-0.33463 c -19.18006,-0.46651 -451.03578,-0.34875 -454.36133,0.1239 -3.38522,0.48114 -2.50825,-0.5112 -19.45332,22.01256 -15.439743,20.52286 -21.344429,28.65884 -22.408256,30.87603 -1.454033,3.03045 0.389975,6.17952 3.964523,6.77034 1.224802,0.20245 123.570813,0.33617 271.880033,0.29717 220.68577,-0.058 269.88404,-0.19057 270.92478,-0.72987 z M 514.56278,317.63865 c 44.22109,-0.30516 58.25265,-0.54818 59.66333,-1.03334 1.43133,-0.49228 1.91201,-0.97218 2.14612,-2.14275 0.16593,-0.82963 0.30166,-63.18357 0.30166,-138.56432 0,-133.492394 -0.0248,-137.104621 -0.9562,-138.929423 -1.18108,-2.314106 -2.29312,-3.343016 -4.86941,-4.50534 -1.91111,-0.862216 -11.96922,-0.908877 -222.94446,-1.034259 l -220.94306,-0.131306 -2.35693,1.494723 c -1.29632,0.822098 -2.94133,2.420466 -3.6556,3.551928 l -1.29865,2.057204 0.14021,137.970523 c 0.0771,75.88379 0.32695,138.34739 0.55521,138.80799 0.64801,1.30763 3.07925,2.06787 7.83416,2.44971 6.08519,0.48866 315.81799,0.4956 386.38362,0.009 z"
         id="path45" />
      <path
         style="opacity:0;fill:#000000;fill-opacity:0;stroke-width:0.504968"
         d="m 73.725384,419.65746 c -9.323003,-0.68685 -17.614622,-7.12922 -21.508149,-16.71125 -3.196775,-7.8673 -1.673917,-15.10495 5.36169,-25.48234 1.318069,-1.94413 11.057508,-15.20995 21.643199,-29.47961 l 19.246711,-25.94482 0.006,-142.71462 c 0.0066,-157.349452 -0.269303,-144.737629 3.315705,-151.559904 4.54458,-8.648345 13.37598,-14.507731 24.29581,-16.119575 2.51885,-0.3718 72.18978,-0.536037 227.3921,-0.536037 h 223.76061 l 4.22457,2.016301 c 7.38254,3.523534 13.83497,9.486368 16.94336,15.657593 2.6224,5.206462 2.49711,-1.230067 2.44253,125.484642 -0.0279,64.98943 -0.20472,130.09248 -0.39277,144.67344 l -0.34196,26.51084 5.54879,7.82701 c 3.05178,4.30486 10.93403,15.11201 17.51599,24.01591 12.9786,17.55695 17.89078,24.75508 20.02079,29.33779 1.20142,2.58475 1.36674,3.54464 1.33453,7.74748 -0.0276,3.60224 -0.31167,5.55191 -1.14047,7.82701 -2.98674,8.19911 -10.24965,15.18089 -17.91542,17.22198 -2.18934,0.58293 -45.67333,0.68071 -275.03093,0.6184 C 200.61132,420.007 76.086118,419.83139 73.725391,419.65746 Z M 620.11042,397.50861 c 1.44739,-0.75001 3.52553,-3.55068 3.52553,-4.75129 0,-1.33003 -25.26119,-35.62497 -36.40428,-49.42291 l -3.90977,-4.8413 -13.75791,-0.33463 c -19.18006,-0.46651 -451.03578,-0.34875 -454.36133,0.1239 -3.38522,0.48114 -2.50825,-0.5112 -19.45332,22.01256 -15.439743,20.52286 -21.344429,28.65884 -22.408256,30.87603 -1.454033,3.03045 0.389975,6.17952 3.964523,6.77034 1.224802,0.20245 123.570813,0.33617 271.880033,0.29717 220.68577,-0.058 269.88404,-0.19057 270.92478,-0.72987 z M 514.56278,317.63865 c 44.22109,-0.30516 58.25265,-0.54818 59.66333,-1.03334 1.43133,-0.49228 1.91201,-0.97218 2.14612,-2.14275 0.16593,-0.82963 0.30166,-63.18357 0.30166,-138.56432 0,-133.492394 -0.0248,-137.104621 -0.9562,-138.929423 -1.18108,-2.314106 -2.29312,-3.343016 -4.86941,-4.50534 -1.91111,-0.862216 -11.96922,-0.908877 -222.94446,-1.034259 l -220.94306,-0.131306 -2.35693,1.494723 c -1.29632,0.822098 -2.94133,2.420466 -3.6556,3.551928 l -1.29865,2.057204 0.14021,137.970523 c 0.0771,75.88379 0.32695,138.34739 0.55521,138.80799 0.64801,1.30763 3.07925,2.06787 7.83416,2.44971 6.08519,0.48866 315.81799,0.4956 386.38362,0.009 z"
         id="path46" />
      <path
         style="opacity:0;fill:#000000;fill-opacity:0;stroke-width:0.504968"
         d="m 73.725384,419.65746 c -9.323003,-0.68685 -17.614622,-7.12922 -21.508149,-16.71125 -3.196775,-7.8673 -1.673917,-15.10495 5.36169,-25.48234 1.318069,-1.94413 11.057508,-15.20995 21.643199,-29.47961 l 19.246711,-25.94482 0.006,-142.71462 c 0.0066,-157.349452 -0.269303,-144.737629 3.315705,-151.559904 4.54458,-8.648345 13.37598,-14.507731 24.29581,-16.119575 2.51885,-0.3718 72.18978,-0.536037 227.3921,-0.536037 h 223.76061 l 4.22457,2.016301 c 7.38254,3.523534 13.83497,9.486368 16.94336,15.657593 2.6224,5.206462 2.49711,-1.230067 2.44253,125.484642 -0.0279,64.98943 -0.20472,130.09248 -0.39277,144.67344 l -0.34196,26.51084 5.54879,7.82701 c 3.05178,4.30486 10.93403,15.11201 17.51599,24.01591 12.9786,17.55695 17.89078,24.75508 20.02079,29.33779 1.20142,2.58475 1.36674,3.54464 1.33453,7.74748 -0.0276,3.60224 -0.31167,5.55191 -1.14047,7.82701 -2.98674,8.19911 -10.24965,15.18089 -17.91542,17.22198 -2.18934,0.58293 -45.67333,0.68071 -275.03093,0.6184 C 200.61132,420.007 76.086118,419.83139 73.725391,419.65746 Z M 620.11042,397.50861 c 1.44739,-0.75001 3.52553,-3.55068 3.52553,-4.75129 0,-1.33003 -25.26119,-35.62497 -36.40428,-49.42291 l -3.90977,-4.8413 -13.75791,-0.33463 c -19.18006,-0.46651 -451.03578,-0.34875 -454.36133,0.1239 -3.38522,0.48114 -2.50825,-0.5112 -19.45332,22.01256 -15.439743,20.52286 -21.344429,28.65884 -22.408256,30.87603 -1.454033,3.03045 0.389975,6.17952 3.964523,6.77034 1.224802,0.20245 123.570813,0.33617 271.880033,0.29717 220.68577,-0.058 269.88404,-0.19057 270.92478,-0.72987 z M 514.56278,317.63865 c 44.22109,-0.30516 58.25265,-0.54818 59.66333,-1.03334 1.43133,-0.49228 1.91201,-0.97218 2.14612,-2.14275 0.16593,-0.82963 0.30166,-63.18357 0.30166,-138.56432 0,-133.492394 -0.0248,-137.104621 -0.9562,-138.929423 -1.18108,-2.314106 -2.29312,-3.343016 -4.86941,-4.50534 -1.91111,-0.862216 -11.96922,-0.908877 -222.94446,-1.034259 l -220.94306,-0.131306 -2.35693,1.494723 c -1.29632,0.822098 -2.94133,2.420466 -3.6556,3.551928 l -1.29865,2.057204 0.14021,137.970523 c 0.0771,75.88379 0.32695,138.34739 0.55521,138.80799 0.64801,1.30763 3.07925,2.06787 7.83416,2.44971 6.08519,0.48866 315.81799,0.4956 386.38362,0.009 z"
         id="path47" />
      <path
         style="opacity:0;fill:#000000;fill-opacity:0;stroke-width:0.504968"
         d="m 73.725384,419.65746 c -9.323003,-0.68685 -17.614622,-7.12922 -21.508149,-16.71125 -3.196775,-7.8673 -1.673917,-15.10495 5.36169,-25.48234 1.318069,-1.94413 11.057508,-15.20995 21.643199,-29.47961 l 19.246711,-25.94482 0.006,-142.71462 c 0.0066,-157.349452 -0.269303,-144.737629 3.315705,-151.559904 4.54458,-8.648345 13.37598,-14.507731 24.29581,-16.119575 2.51885,-0.3718 72.18978,-0.536037 227.3921,-0.536037 h 223.76061 l 4.22457,2.016301 c 7.38254,3.523534 13.83497,9.486368 16.94336,15.657593 2.6224,5.206462 2.49711,-1.230067 2.44253,125.484642 -0.0279,64.98943 -0.20472,130.09248 -0.39277,144.67344 l -0.34196,26.51084 5.54879,7.82701 c 3.05178,4.30486 10.93403,15.11201 17.51599,24.01591 12.9786,17.55695 17.89078,24.75508 20.02079,29.33779 1.20142,2.58475 1.36674,3.54464 1.33453,7.74748 -0.0276,3.60224 -0.31167,5.55191 -1.14047,7.82701 -2.98674,8.19911 -10.24965,15.18089 -17.91542,17.22198 -2.18934,0.58293 -45.67333,0.68071 -275.03093,0.6184 C 200.61132,420.007 76.086118,419.83139 73.725391,419.65746 Z M 620.11042,397.50861 c 1.44739,-0.75001 3.52553,-3.55068 3.52553,-4.75129 0,-1.33003 -25.26119,-35.62497 -36.40428,-49.42291 l -3.90977,-4.8413 -13.75791,-0.33463 c -19.18006,-0.46651 -451.03578,-0.34875 -454.36133,0.1239 -3.38522,0.48114 -2.50825,-0.5112 -19.45332,22.01256 -15.439743,20.52286 -21.344429,28.65884 -22.408256,30.87603 -1.454033,3.03045 0.389975,6.17952 3.964523,6.77034 1.224802,0.20245 123.570813,0.33617 271.880033,0.29717 220.68577,-0.058 269.88404,-0.19057 270.92478,-0.72987 z M 514.56278,317.63865 c 44.22109,-0.30516 58.25265,-0.54818 59.66333,-1.03334 1.43133,-0.49228 1.91201,-0.97218 2.14612,-2.14275 0.16593,-0.82963 0.30166,-63.18357 0.30166,-138.56432 0,-133.492394 -0.0248,-137.104621 -0.9562,-138.929423 -1.18108,-2.314106 -2.29312,-3.343016 -4.86941,-4.50534 -1.91111,-0.862216 -11.96922,-0.908877 -222.94446,-1.034259 l -220.94306,-0.131306 -2.35693,1.494723 c -1.29632,0.822098 -2.94133,2.420466 -3.6556,3.551928 l -1.29865,2.057204 0.14021,137.970523 c 0.0771,75.88379 0.32695,138.34739 0.55521,138.80799 0.64801,1.30763 3.07925,2.06787 7.83416,2.44971 6.08519,0.48866 315.81799,0.4956 386.38362,0.009 z"
         id="path48" />
      <path
         style="opacity:0;fill:#000000;fill-opacity:0;stroke-width:0.504968"
         d="m 73.725384,419.65746 c -9.323003,-0.68685 -17.614622,-7.12922 -21.508149,-16.71125 -3.196775,-7.8673 -1.673917,-15.10495 5.36169,-25.48234 1.318069,-1.94413 11.057508,-15.20995 21.643199,-29.47961 l 19.246711,-25.94482 0.006,-142.71462 c 0.0066,-157.349452 -0.269303,-144.737629 3.315705,-151.559904 4.54458,-8.648345 13.37598,-14.507731 24.29581,-16.119575 2.51885,-0.3718 72.18978,-0.536037 227.3921,-0.536037 h 223.76061 l 4.22457,2.016301 c 7.38254,3.523534 13.83497,9.486368 16.94336,15.657593 2.6224,5.206462 2.49711,-1.230067 2.44253,125.484642 -0.0279,64.98943 -0.20472,130.09248 -0.39277,144.67344 l -0.34196,26.51084 5.54879,7.82701 c 3.05178,4.30486 10.93403,15.11201 17.51599,24.01591 12.9786,17.55695 17.89078,24.75508 20.02079,29.33779 1.20142,2.58475 1.36674,3.54464 1.33453,7.74748 -0.0276,3.60224 -0.31167,5.55191 -1.14047,7.82701 -2.98674,8.19911 -10.24965,15.18089 -17.91542,17.22198 -2.18934,0.58293 -45.67333,0.68071 -275.03093,0.6184 C 200.61132,420.007 76.086118,419.83139 73.725391,419.65746 Z M 620.11042,397.50861 c 1.44739,-0.75001 3.52553,-3.55068 3.52553,-4.75129 0,-1.33003 -25.26119,-35.62497 -36.40428,-49.42291 l -3.90977,-4.8413 -13.75791,-0.33463 c -19.18006,-0.46651 -451.03578,-0.34875 -454.36133,0.1239 -3.38522,0.48114 -2.50825,-0.5112 -19.45332,22.01256 -15.439743,20.52286 -21.344429,28.65884 -22.408256,30.87603 -1.454033,3.03045 0.389975,6.17952 3.964523,6.77034 1.224802,0.20245 123.570813,0.33617 271.880033,0.29717 220.68577,-0.058 269.88404,-0.19057 270.92478,-0.72987 z M 514.56278,317.63865 c 44.22109,-0.30516 58.25265,-0.54818 59.66333,-1.03334 1.43133,-0.49228 1.91201,-0.97218 2.14612,-2.14275 0.16593,-0.82963 0.30166,-63.18357 0.30166,-138.56432 0,-133.492394 -0.0248,-137.104621 -0.9562,-138.929423 -1.18108,-2.314106 -2.29312,-3.343016 -4.86941,-4.50534 -1.91111,-0.862216 -11.96922,-0.908877 -222.94446,-1.034259 l -220.94306,-0.131306 -2.35693,1.494723 c -1.29632,0.822098 -2.94133,2.420466 -3.6556,3.551928 l -1.29865,2.057204 0.14021,137.970523 c 0.0771,75.88379 0.32695,138.34739 0.55521,138.80799 0.64801,1.30763 3.07925,2.06787 7.83416,2.44971 6.08519,0.48866 315.81799,0.4956 386.38362,0.009 z"
         id="path49" />
      <path
         style="opacity:0;fill:#000000;fill-opacity:0;stroke-width:0.504968"
         d="m 73.725384,419.65746 c -9.323003,-0.68685 -17.614622,-7.12922 -21.508149,-16.71125 -3.196775,-7.8673 -1.673917,-15.10495 5.36169,-25.48234 1.318069,-1.94413 11.057508,-15.20995 21.643199,-29.47961 l 19.246711,-25.94482 0.006,-142.71462 c 0.0066,-157.349452 -0.269303,-144.737629 3.315705,-151.559904 4.54458,-8.648345 13.37598,-14.507731 24.29581,-16.119575 2.51885,-0.3718 72.18978,-0.536037 227.3921,-0.536037 h 223.76061 l 4.22457,2.016301 c 7.38254,3.523534 13.83497,9.486368 16.94336,15.657593 2.6224,5.206462 2.49711,-1.230067 2.44253,125.484642 -0.0279,64.98943 -0.20472,130.09248 -0.39277,144.67344 l -0.34196,26.51084 5.54879,7.82701 c 3.05178,4.30486 10.93403,15.11201 17.51599,24.01591 12.9786,17.55695 17.89078,24.75508 20.02079,29.33779 1.20142,2.58475 1.36674,3.54464 1.33453,7.74748 -0.0276,3.60224 -0.31167,5.55191 -1.14047,7.82701 -2.98674,8.19911 -10.24965,15.18089 -17.91542,17.22198 -2.18934,0.58293 -45.67333,0.68071 -275.03093,0.6184 C 200.61132,420.007 76.086118,419.83139 73.725391,419.65746 Z M 620.11042,397.50861 c 1.44739,-0.75001 3.52553,-3.55068 3.52553,-4.75129 0,-1.33003 -25.26119,-35.62497 -36.40428,-49.42291 l -3.90977,-4.8413 -13.75791,-0.33463 c -19.18006,-0.46651 -451.03578,-0.34875 -454.36133,0.1239 -3.38522,0.48114 -2.50825,-0.5112 -19.45332,22.01256 -15.439743,20.52286 -21.344429,28.65884 -22.408256,30.87603 -1.454033,3.03045 0.389975,6.17952 3.964523,6.77034 1.224802,0.20245 123.570813,0.33617 271.880033,0.29717 220.68577,-0.058 269.88404,-0.19057 270.92478,-0.72987 z M 514.56278,317.63865 c 44.22109,-0.30516 58.25265,-0.54818 59.66333,-1.03334 1.43133,-0.49228 1.91201,-0.97218 2.14612,-2.14275 0.16593,-0.82963 0.30166,-63.18357 0.30166,-138.56432 0,-133.492394 -0.0248,-137.104621 -0.9562,-138.929423 -1.18108,-2.314106 -2.29312,-3.343016 -4.86941,-4.50534 -1.91111,-0.862216 -11.96922,-0.908877 -222.94446,-1.034259 l -220.94306,-0.131306 -2.35693,1.494723 c -1.29632,0.822098 -2.94133,2.420466 -3.6556,3.551928 l -1.29865,2.057204 0.14021,137.970523 c 0.0771,75.88379 0.32695,138.34739 0.55521,138.80799 0.64801,1.30763 3.07925,2.06787 7.83416,2.44971 6.08519,0.48866 315.81799,0.4956 386.38362,0.009 z"
         id="path50" />
      <path
         style="opacity:0;fill:#000000;fill-opacity:0;stroke-width:0.504968"
         d="m 73.725384,419.65746 c -9.323003,-0.68685 -17.614622,-7.12922 -21.508149,-16.71125 -3.196775,-7.8673 -1.673917,-15.10495 5.36169,-25.48234 1.318069,-1.94413 11.057508,-15.20995 21.643199,-29.47961 l 19.246711,-25.94482 0.006,-142.71462 c 0.0066,-157.349452 -0.269303,-144.737629 3.315705,-151.559904 4.54458,-8.648345 13.37598,-14.507731 24.29581,-16.119575 2.51885,-0.3718 72.18978,-0.536037 227.3921,-0.536037 h 223.76061 l 4.22457,2.016301 c 7.38254,3.523534 13.83497,9.486368 16.94336,15.657593 2.6224,5.206462 2.49711,-1.230067 2.44253,125.484642 -0.0279,64.98943 -0.20472,130.09248 -0.39277,144.67344 l -0.34196,26.51084 5.54879,7.82701 c 3.05178,4.30486 10.93403,15.11201 17.51599,24.01591 12.9786,17.55695 17.89078,24.75508 20.02079,29.33779 1.20142,2.58475 1.36674,3.54464 1.33453,7.74748 -0.0276,3.60224 -0.31167,5.55191 -1.14047,7.82701 -2.98674,8.19911 -10.24965,15.18089 -17.91542,17.22198 -2.18934,0.58293 -45.67333,0.68071 -275.03093,0.6184 C 200.61132,420.007 76.086118,419.83139 73.725391,419.65746 Z M 620.11042,397.50861 c 1.44739,-0.75001 3.52553,-3.55068 3.52553,-4.75129 0,-1.33003 -25.26119,-35.62497 -36.40428,-49.42291 l -3.90977,-4.8413 -13.75791,-0.33463 c -19.18006,-0.46651 -451.03578,-0.34875 -454.36133,0.1239 -3.38522,0.48114 -2.50825,-0.5112 -19.45332,22.01256 -15.439743,20.52286 -21.344429,28.65884 -22.408256,30.87603 -1.454033,3.03045 0.389975,6.17952 3.964523,6.77034 1.224802,0.20245 123.570813,0.33617 271.880033,0.29717 220.68577,-0.058 269.88404,-0.19057 270.92478,-0.72987 z M 514.56278,317.63865 c 44.22109,-0.30516 58.25265,-0.54818 59.66333,-1.03334 1.43133,-0.49228 1.91201,-0.97218 2.14612,-2.14275 0.16593,-0.82963 0.30166,-63.18357 0.30166,-138.56432 0,-133.492394 -0.0248,-137.104621 -0.9562,-138.929423 -1.18108,-2.314106 -2.29312,-3.343016 -4.86941,-4.50534 -1.91111,-0.862216 -11.96922,-0.908877 -222.94446,-1.034259 l -220.94306,-0.131306 -2.35693,1.494723 c -1.29632,0.822098 -2.94133,2.420466 -3.6556,3.551928 l -1.29865,2.057204 0.14021,137.970523 c 0.0771,75.88379 0.32695,138.34739 0.55521,138.80799 0.64801,1.30763 3.07925,2.06787 7.83416,2.44971 6.08519,0.48866 315.81799,0.4956 386.38362,0.009 z"
         id="path51" />
    </g>
  </g>
</svg>
