<?xml version="1.0" encoding="UTF-8" standalone="no"?>
<svg
   width="698"
   height="559"
   version="1.1"
   id="svg2"
   sodipodi:docname="svg (1).svg"
   inkscape:version="1.4.2 (f4327f4, 2025-05-13)"
   xmlns:inkscape="http://www.inkscape.org/namespaces/inkscape"
   xmlns:sodipodi="http://sodipodi.sourceforge.net/DTD/sodipodi-0.dtd"
   xmlns="http://www.w3.org/2000/svg"
   xmlns:svg="http://www.w3.org/2000/svg">
  <defs
     id="defs3" />
  <sodipodi:namedview
     id="namedview2"
     pagecolor="#ffffff"
     bordercolor="#000000"
     borderopacity="0.25"
     inkscape:showpageshadow="2"
     inkscape:pageopacity="0.0"
     inkscape:pagecheckerboard="0"
     inkscape:deskcolor="#d1d1d1"
     inkscape:zoom="1.980322"
     inkscape:cx="349.18564"
     inkscape:cy="279.5"
     inkscape:window-width="3440"
     inkscape:window-height="1346"
     inkscape:window-x="-11"
     inkscape:window-y="-11"
     inkscape:window-maximized="1"
     inkscape:current-layer="svg_2" />
  <clipPath
     id="cl_3">
    <rect
       x="0.00006"
       y="0"
       width="698"
       height="559.00006"
       id="svg_1" />
  </clipPath>
  <g
     id="g2">
    <title
       id="title1">Layer 1</title>
    <g
       clip-path="url(#cl_3)"
       id="svg_2"
       stroke="null">
      <path
         fill="#2A435B"
         d="m569.05562,10.36994c9.41153,-0.92918 18.10704,4.11643 24.44639,10.40653c9.30093,9.22845 8.027,17.17463 8.05404,28.94892l0.04178,24.71359l0.15566,79.06655l-0.1704,106.54406c-0.02048,13.78479 -0.16467,27.4499 -0.70373,41.23156c-0.28919,7.40513 0.32688,16.76342 -0.35637,23.93545c7.94672,11.28252 16.07694,22.44614 24.38904,33.48617c5.99444,8.08095 14.64162,18.80732 18.79439,27.49918c6.19844,12.97442 -4.96547,32.09385 -19.7054,34.18155c-5.46603,0.77438 -12.53123,0.47714 -18.29711,0.45994l-29.47002,-0.03755l-118.1357,0.02581l-255.10266,-0.03989l-85.01019,-0.02347c-13.99687,-0.00391 -28.32471,0.25343 -42.13258,-0.03207c-17.76795,-0.38015 -31.11909,-19.55355 -23.87586,-35.15148c3.60347,-7.76025 11.80259,-17.59647 17.08503,-24.73565l28.70927,-38.82706c0.3875,-8.40009 0.14828,-18.14792 0.13845,-26.66065l-0.04506,-45.97485l0.00246,-138.84363l-0.07046,-49.07613c-0.00246,-2.96854 -0.02704,-5.96353 -0.00737,-8.9316c0.08356,-12.15796 -1.53773,-21.02432 7.40519,-31.0349c4.94908,-5.46534 11.73574,-9.11526 19.195,-10.32314c7.92378,-1.22266 27.39077,-0.78909 35.94455,-0.78658l63.69251,-0.00063l237.54042,-0.01236l74.11172,-0.01893l20.85071,0.02198c3.88078,0.03348 8.76187,0.35418 12.52632,-0.01072l-0.00002,0z"
         id="svg_3"
         stroke="null" />
      <defs
         transform="translate(-1 0) translate(17.0913 -1.74076) scale(1 0.975954) translate(-17.0913 1.74076) translate(17.0913 538.847) scale(1 0.977257) translate(-17.0913 -538.847)"
         stroke="null"
         id="defs2">
        <linearGradient
           id="gradient_0"
           x1="0.6494"
           y1="1.17322"
           x2="0.34783"
           y2="-0.16937"
           stroke="null">
          <stop
             offset="0"
             stop-color="#4F63B8"
             stroke="null"
             id="stop1" />
          <stop
             offset="1"
             stop-color="#4D8AD1"
             stroke="null"
             id="stop2" />
        </linearGradient>
      </defs>
      <path
         fill="url(#gradient_0)"
         d="m131.43493,31.62141l305.2153,-0.04177l90.44345,-0.01846l26.25939,-0.00501c6.05589,0.00172 17.23044,-1.27906 20.96458,3.87387c1.57296,2.16983 1.90557,5.14026 1.94735,7.73178c0.11797,7.33794 0.068,14.68784 0.06636,22.02875l-0.01966,40.44091l0.00983,116.56566l-0.00492,60.26572c0.01393,7.9777 0.60542,25.75564 -0.60624,32.82521c-3.80541,1.89841 -6.53105,1.94612 -10.74199,1.99853l-292.81515,0.0086l-93.75321,0.00704c-16.65205,0.00235 -33.37538,0.09308 -50.02908,-0.12281c-2.25785,-0.02972 -5.00315,-0.18773 -6.93986,-1.36182c-1.38289,-0.83774 -1.1322,-2.51948 -1.42549,-3.87348c-0.38832,-4.42337 -0.28838,-9.1252 -0.29165,-13.58454l-0.00573,-22.1004l0.0041,-71.38788l0.02212,-107.25665l-0.01966,-34.37843c-0.00328,-6.86901 -0.05653,-13.72839 0.15156,-20.59466c0.22857,-7.51206 4.01022,-10.56938 11.56861,-11.02016l-0.00001,0z"
         id="svg_5"
         stroke="null" />
      <path
         fill="#EBEAEA"
         d="m303.37645,105.15199c0.6939,-0.06883 1.39027,-0.1056 2.08663,-0.11029c12.51075,-0.1627 23.17573,5.08433 29.51181,15.60811c4.19292,6.96318 4.41575,13.72065 4.5116,21.51062l-49.90537,0.00626c2.39466,9.87846 7.28476,14.67885 18.55025,14.50442c7.63704,-0.11811 10.92223,-2.53356 16.00157,-7.62493c1.79661,0.76891 3.64812,1.74979 5.39967,2.63525c2.39466,1.39623 4.84258,2.94187 7.21676,4.3913c-6.29921,8.39931 -11.94793,13.42654 -23.3273,14.71718c-10.76657,1.22102 -20.98015,-0.48731 -29.57898,-7.14387c-14.11484,-10.92583 -15.35027,-34.17138 -3.87996,-47.23654c6.16813,-7.0062 13.99195,-10.38689 23.41332,-11.25749l0,-0.00002z"
         id="svg_6"
         stroke="null" />
      <path
         fill="#4E77C6"
         d="m303.71316,118.42913c10.98285,-0.78924 15.94013,3.66697 18.61334,13.34832l-12.75407,0.01877c-6.61052,-0.02268 -13.22104,-0.00391 -19.83156,0.05632c2.55851,-7.93937 5.05722,-11.61417 13.97229,-13.42341z"
         id="svg_7"
         stroke="null" />
      <path
         fill="#EBEAEA"
         d="m428.10137,83.69612c4.72379,-0.03833 9.24359,-0.0704 13.96983,0.08839c0.08192,9.80102 -0.30804,21.08041 0.11633,30.64129c8.53166,-8.76695 19.82255,-11.56567 31.32071,-6.32569c14.15498,6.45006 12.89252,22.87166 12.90973,35.13193c0.04342,8.6019 0.00819,17.2038 -0.10568,25.80492c-6.00182,0.05397 -12.00527,-0.00626 -18.00463,-0.18225l0.09585,-26.17334c0.00901,-5.61232 0.86267,-14.70153 -3.49328,-19.06623c-4.75164,-4.60875 -14.17547,-4.14568 -18.68052,0.56475c-3.63255,3.79917 -3.68826,11.55707 -3.70301,16.51155c-0.02867,9.42322 -0.23103,18.94577 0.15074,28.35804l-18.23239,0.06101c-0.46779,-18.93795 -0.08274,-39.35036 -0.09258,-58.44084l-0.00573,-17.18738c-0.00082,-2.28013 -0.14337,-7.25025 0.24823,-9.32075c1.08141,-0.62107 2.19231,-0.46228 3.50639,-0.46541l0.00001,0.00001z"
         id="svg_8"
         stroke="null" />
      <path
         fill="#EBEAEA"
         d="m405.54499,207.34387c1.21167,-0.10716 2.42743,-0.176 3.6432,-0.2065c15.46414,-0.32461 27.88887,8.8655 31.56566,23.29014c1.16333,4.56416 1.26738,8.51742 1.3493,13.15824c-16.37269,0.3254 -33.14436,-0.12046 -49.62519,0.09308c3.05662,10.23906 8.46776,15.14739 20.21906,14.12739c6.31641,-0.54833 10.04727,-3.27118 13.95263,-7.86585l4.68856,2.58988c2.66338,1.33444 5.19486,2.89494 7.56413,4.66272c-0.6554,0.96524 -1.34029,1.91171 -2.05468,2.83862c-7.40601,9.61251 -16.0966,11.99823 -28.0732,12.02092c-41.41304,0.07822 -45.67723,-59.37166 -3.22948,-64.70864l0.00001,0z"
         id="svg_9"
         stroke="null" />
      <path
         fill="#4E77C6"
         d="m408.44759,220.01714c2.65355,-0.1846 6.32378,0.59135 8.63734,1.85617c5.29481,2.89337 6.32214,6.33977 7.88609,11.45617c-4.79343,0.20416 -9.8654,0.10638 -14.68586,0.08682c-5.89777,0.06101 -11.79555,0.0485 -17.6925,-0.03755c2.52574,-8.47127 6.75307,-12.20082 15.85493,-13.36162l0,0.00001z"
         id="svg_10"
         stroke="null" />
      <path
         fill="#EBEAEA"
         d="m208.66226,185.59858c18.94186,0.49122 38.41213,-0.16739 57.54732,0.2417c0.23594,5.19305 0.17614,9.9911 0.04752,15.18181c-13.18499,0.06023 -26.37081,0.05475 -39.55662,-0.01564c-0.06226,6.81378 -0.06226,13.62835 -0.00082,20.44213c9.40498,-0.61716 26.36179,-0.29646 36.06744,-0.10638l0.02458,10.37359l0.02212,5.01706c-11.90696,0.02034 -24.30876,0.22606 -36.16738,-0.11264c-0.05817,11.15345 -0.04752,22.30612 0.03113,33.45879c-5.67903,0.3606 -12.25351,0.19477 -18.00955,0.17052c-0.30394,-11.97555 -0.08029,-24.74191 -0.08029,-36.76674c-0.06062,-15.96088 -0.03605,-31.92254 0.07455,-47.88421l0,0.00001z"
         id="svg_11"
         stroke="null" />
      <path
         fill="#EBEAEA"
         d="m206.1103,83.70942l70.88798,0.0837c-0.10159,5.26345 -0.1278,10.52769 -0.07865,15.79114c-8.15644,0.4482 -18.61743,0.18929 -26.9705,0.23623c0.31705,4.77301 0.15238,10.85465 0.1573,15.71058l0.08848,27.04002l0.04096,26.6145c-6.10177,-0.11968 -12.39196,-0.09152 -18.50847,-0.13219l-0.00573,-69.30722l-25.84157,0.03051c0.02704,-2.89259 -0.30722,-13.89664 0.23021,-16.06726l-0.00001,-0.00001z"
         id="svg_12"
         stroke="null" />
      <path
         fill="#EBEAEA"
         d="m353.03195,208.1996c6.68589,-0.03911 14.45073,-0.25735 21.04814,0.10482c-7.71978,9.42635 -16.32026,20.78474 -23.41086,30.67962c2.29963,3.11161 23.78853,29.89507 23.70579,31.0058l-1.23952,0.16817c-5.69624,0.34261 -13.28248,0.16348 -19.15486,0.15018c-5.27678,-6.47665 -9.41563,-13.34988 -14.57608,-19.78977c-4.52062,5.68897 -9.75152,13.57672 -14.07388,19.6521c-6.77601,0.22136 -13.55775,0.20337 -20.33294,-0.05397c2.42006,-2.47802 6.45322,-8.26712 8.62341,-11.191l14.78744,-19.77569c-4.20111,-7.08051 -11.9766,-15.88501 -16.82901,-22.90529c-1.33865,-1.93596 -4.88272,-6.06912 -5.76014,-7.94329c5.8052,-0.37389 13.92723,-0.12124 19.86269,-0.08995c4.77376,5.75859 8.9249,12.78748 13.82073,18.53199c3.96517,-5.90095 9.24113,-12.71473 13.52908,-18.54372l0.00001,0z"
         id="svg_13"
         stroke="null" />
      <path
         fill="#EBEAEA"
         d="m381.64832,105.15981c13.25053,-1.39702 27.75861,5.07964 32.46848,17.48618c-2.28898,1.42909 -11.16145,5.45431 -14.1345,6.9405c-3.63747,-5.23842 -7.6395,-9.14397 -14.62441,-9.32935c-4.73444,-0.16583 -9.33288,1.53312 -12.7172,4.69948c-10.82392,10.07557 -4.52062,31.74029 12.12898,31.18727c9.40989,-0.31288 10.19555,-3.39242 15.9008,-9.15414c0.80696,0.03442 1.60573,0.72589 2.38647,1.22102c3.26962,1.98054 7.52234,4.95683 10.78296,6.62449c-1.03799,1.83192 -2.23819,3.57546 -3.58831,5.21105c-5.18093,6.14891 -12.73686,10.04585 -20.96212,10.81319c-50.09953,4.59936 -53.57397,-62.46919 -7.64114,-65.69969l-0.00001,0z"
         id="svg_14"
         stroke="null" />
      <path
         fill="#EBEAEA"
         d="m490.8411,207.36186c1.06912,0.00313 1.60819,-0.10794 2.48888,0.45603c0.38095,2.63368 0.12862,13.02605 0.16631,16.40126c-8.98225,-1.23432 -19.91676,-0.74857 -22.42366,9.81745c-1.14121,4.81212 -0.70947,11.17535 -0.69964,16.20024l-0.0385,20.08623l-17.37955,-0.0438l-0.16631,-5.04678l0.05817,-57.05164l17.16572,0.00939c-0.03113,2.88555 -0.01147,5.77189 0.05899,8.65666c4.67218,-7.39418 12.38459,-9.24722 20.7696,-9.48501l-0.00001,-0.00003z"
         id="svg_15"
         stroke="null" />
      <path
         fill="#EBEAEA"
         d="m278.36068,208.15188c5.93792,0.13454 11.8914,-0.01799 17.93336,0.14001l-0.0254,46.9526c-0.00164,2.45925 0.2851,13.91463 -0.52596,14.97217c-5.83715,0.05788 -11.67512,0.08135 -17.51309,0.06883c0.18761,-5.55991 0.0172,-11.77139 0.04014,-17.39623l0.09094,-44.7374l0.00001,0.00002z"
         id="svg_16"
         stroke="null" />
      <path
         fill="#EBEAEA"
         d="m286.80304,182.02626c5.41114,-0.3958 10.12838,3.4855 10.51752,8.65509c0.38996,5.16959 -3.69645,9.65631 -9.11169,10.00439c-5.38001,0.34652 -10.04072,-3.5254 -10.42822,-8.66135c-0.38669,-5.13595 3.64566,-9.60469 9.02239,-9.99814l0,0.00001z"
         id="svg_17"
         stroke="null" />
      <path
         fill="#EBEAEA"
         d="m115.58984,338.13079c35.16872,-0.42943 71.67773,0.03363 106.96115,0.03442l219.2343,0.00235l96.02827,0.00235l26.99343,-0.04067c4.90075,-0.00704 13.08013,-0.21511 17.65891,0.49435c1.01751,0.84556 2.10957,1.84991 2.90096,2.88555c7.74682,10.13346 15.69108,20.67132 23.25274,30.89786c3.17295,4.29196 12.96216,16.43724 14.66865,20.41945c-1.0298,2.57267 -2.26277,4.69244 -5.33495,5.00611c-4.58943,0.46776 -9.33534,0.29176 -13.95099,0.2902l-25.43686,-0.02894l-334.89341,-0.0086l-109.1682,0.00313c-17.80801,0.00313 -35.66355,0.04302 -53.4732,0.02268c-1.5823,-0.09934 -3.69317,0.00939 -5.07918,-0.85886c-3.58356,-2.24336 -3.47329,-4.91068 -1.32923,-7.93233c2.97641,-4.19496 6.01804,-8.10833 9.0808,-12.13825l13.15058,-17.56753c4.26009,-5.66472 8.41942,-11.46008 12.71229,-17.10446c1.66963,-2.19565 3.15657,-3.73972 6.02394,-4.37878l0,-0.00003z"
         id="svg_18"
         stroke="null" />
      <path
         fill="#2A435B"
         d="m291.16964,366.85177l77.1241,0.00704l25.12555,-0.04067c6.0436,-0.00078 17.6114,-0.93786 22.20247,2.73068c2.21115,1.7537 3.53916,4.32168 3.65385,7.06409c0.08602,2.71112 -0.99211,5.33776 -2.98452,7.27059c-3.31796,3.15854 -7.54856,3.33141 -11.87665,3.38773c-25.17798,0.3559 -51.38903,0.02738 -76.61698,0.0352l-25.54009,0.0086c-5.49306,0.00469 -11.17619,0.15175 -16.50787,-0.35825c-8.50053,-0.81271 -13.32345,-10.53629 -6.87514,-16.62263c3.77018,-3.55747 7.56167,-3.33532 12.29529,-3.48237l-0.00001,-0.00001z"
         id="svg_19"
         stroke="null" />
      <path
         fill="#1F3A4D"
         d="m134.2253,317.72229c16.04008,-0.33322 32.76914,-0.11811 48.85345,-0.12046l87.11812,-0.01408l58.83191,0.1009c18.66659,-0.1009 39.36901,-0.52642 58.0061,0.03129l-0.23267,0.30193l-184.23353,0.16035l-44.95137,-0.02347c-4.62056,0.00469 -19.51861,0.26282 -23.39202,-0.43647l0.00001,0.00001z"
         id="svg_20"
         stroke="null" />
      <path
         fill="#2A435B"
         d="m344.95907,466.30984l15.60342,-0.04067c10.34711,-0.02112 20.13304,-0.079 28.23705,7.15013c12.12734,10.8171 11.73574,31.46026 0.92411,42.8781c-8.90278,8.38288 -19.14175,8.27494 -30.51047,8.25382c-4.74345,-0.00313 -9.4869,0.01956 -14.22954,0.06962c-0.38914,-19.02243 -0.02704,-39.17749 -0.02458,-58.31099l0.00001,-0.00001zm10.89601,48.77044c9.27636,-0.04459 17.77852,1.20616 24.79539,-5.07572c7.37734,-7.90026 8.09172,-22.41094 -0.30148,-30.1266c-6.14355,-5.6483 -16.72251,-3.98533 -24.52831,-4.41554c-0.39324,11.65641 -0.33262,27.91375 0.03441,39.61787l-0.00001,-0.00001z"
         id="svg_21"
         stroke="null" />
      <path
         fill="#2A435B"
         d="m17.29299,466.27933c9.16969,-0.05397 22.95216,-0.91518 31.5002,1.1076c12.82493,3.03495 15.6044,21.13907 2.10613,26.75139c1.56681,0.76812 3.37211,1.59022 4.83906,2.50071c6.77904,4.20591 7.62172,11.89107 4.61409,18.58205c-6.02254,10.22185 -17.19153,9.34734 -27.74632,9.35047l-15.28325,0.00313c-0.06194,-19.02869 -0.47,-39.39025 -0.0299,-58.29535l-0.00001,0zm10.66212,49.55187c6.58283,-0.01252 15.37411,1.05989 20.53398,-2.52339c1.83545,-2.3341 2.53451,-3.92667 2.10031,-6.95067c-1.38355,-9.63441 -15.74252,-7.26981 -22.95044,-7.50994c0.06275,5.01549 -0.07889,12.13825 0.31615,16.984zm-0.32049,-25.29571c5.84477,-0.11968 14.15556,0.98558 18.44113,-2.21833c6.16862,-7.84551 -0.4487,-14.70779 -9.35418,-13.66042c-1.81234,0.21276 -7.23782,-0.00626 -9.07277,-0.15488c0.00164,5.28457 0.08422,10.76548 -0.01417,16.03363l-0.00001,0z"
         id="svg_22"
         stroke="null" />
      <path
         fill="#2A435B"
         d="m572.60378,465.4674c1.26082,0.11577 2.54131,0.13141 3.80787,0.16896l-0.01147,59.0095c-3.10495,-0.13376 -6.76044,-0.08761 -9.908,-0.1189l-0.00246,-5.45431c-7.53791,7.92764 -17.7351,8.60347 -26.94346,2.70486c-0.26216,-0.21667 -0.52186,-0.43569 -0.77829,-0.65862c-9.1379,-7.88384 -9.91701,-25.17681 -1.76384,-33.63948c3.50475,-3.67636 8.40959,-5.85167 13.61182,-6.03862c6.32624,-0.24952 10.27092,1.54407 14.80793,5.53722l0.0213,-21.32524c2.38729,-0.02816 4.77376,-0.08995 7.1586,-0.18538l0,0.00001zm-17.66219,51.25316c14.12713,-1.10995 15.68944,-25.15569 -0.93149,-26.60121c-9.14036,1.46116 -12.69344,8.70437 -11.09837,16.99965c1.27475,6.62762 5.21944,9.11894 12.02985,9.60156l0.00001,0z"
         id="svg_23"
         stroke="null" />
      <path
         fill="#2A435B"
         d="m455.88211,481.80453c12.67296,-2.42405 24.99201,5.46135 27.45795,17.57691c2.46594,12.11556 -5.86173,23.83377 -18.56336,26.11937c-12.59841,2.26761 -24.74951,-5.60762 -27.19579,-17.62541c-2.44628,-12.01779 5.73065,-23.66638 18.3012,-26.07087zm6.76618,34.86676c3.5752,-0.86277 6.11242,-2.55468 7.98768,-5.64048c3.61944,-5.95649 2.55442,-15.5862 -4.06429,-19.28368c-2.79118,-1.55972 -5.31938,-1.43613 -8.36781,-1.31489c-3.37776,1.00435 -6.67606,2.71268 -8.15071,5.92129c-4.48785,9.76426 -0.29493,21.55912 12.59513,20.31776z"
         id="svg_24"
         stroke="null" />
      <path
         fill="#2A435B"
         d="m200.50418,481.63557c12.67788,-1.92031 24.58648,6.33664 26.59774,18.4436c2.01126,12.10696 -6.63592,23.47865 -19.31461,25.39896c-12.67788,1.92109 -24.58566,-6.33664 -26.59692,-18.4436c-2.01126,-12.10618 6.6351,-23.47786 19.31379,-25.39896zm5.79209,34.94811c15.24377,-4.15272 12.76144,-28.07957 -4.38298,-26.10529c-1.22642,0.35903 -3.0812,0.88624 -4.05364,1.61995c-10.3168,7.78606 -6.95542,25.86828 8.43663,24.48534l-0.00001,0z"
         id="svg_25"
         stroke="null" />
      <path
         fill="#2A435B"
         d="m87.37572,481.7177c16.72005,-0.55928 20.9228,5.59824 20.69914,20.65567c-0.10241,6.87323 0.46124,15.3797 1.14203,22.20209c-3.3368,0.04693 -6.67524,0.02816 -10.01204,-0.0571c-0.01638,-1.71381 -0.18925,-3.63412 -0.3064,-5.36514c-5.15144,5.23842 -9.55326,7.12275 -17.23536,6.24434c-4.84373,-0.5538 -7.95614,-2.3998 -10.96581,-6.0175c-1.28376,-2.21755 -2.22688,-4.83715 -2.13332,-7.38557c0.52031,-14.17902 19.08129,-13.14886 28.94013,-12.99789c-0.23431,-3.17575 -0.34736,-6.29675 -3.43429,-8.21315c-5.47586,-3.40024 -11.13441,-0.0133 -14.19398,4.36861c-1.85527,-0.21824 -7.25019,-0.52408 -8.25656,-1.86478c-0.17876,-3.83984 3.89405,-7.80562 7.20538,-9.52021c3.07931,-1.59413 5.13235,-1.86399 8.55108,-2.04938l0,0.00001zm-5.5242,34.47644c3.07136,1.28594 6.49173,1.7584 9.71957,0.61872c2.48232,-0.87294 4.45835,-2.71425 5.43244,-5.06243c0.62754,-1.52139 0.78566,-4.0041 0.71766,-5.66864l-0.28756,-0.24796c-5.14243,0.09308 -12.80158,-0.12124 -16.88546,3.41041c-2.24638,1.943 -0.43707,5.21809 1.30334,6.94989l0.00001,0.00001z"
         id="svg_26"
         stroke="null" />
      <path
         fill="#2A435B"
         d="m606.9,481.72396c5.4521,-0.26204 11.04757,1.3845 14.97505,5.07181c5.6987,5.35028 6.32296,12.33067 6.44175,19.45812c-7.53545,-0.49826 -24.81259,-0.41848 -32.34559,0.07118c1.10681,8.89523 8.37436,13.03387 17.19604,9.46858c2.58391,-1.04424 4.14458,-2.99975 5.91006,-5.00924c1.43369,0.25891 3.04761,0.6461 4.48703,0.96133c1.73681,0.4615 2.3832,0.3911 3.06481,2.01339c-0.16221,1.87807 -2.08581,4.10188 -3.32124,5.58025c-4.77622,5.72026 -13.60609,6.8615 -20.78435,5.79848c-21.64538,-3.20626 -23.30108,-34.14479 -4.23224,-41.8933c3.01647,-1.22571 5.38574,-1.39389 8.60867,-1.52061l0.00001,0.00001zm1.40173,17.12558c1.86051,0.01956 7.33064,0.22997 8.76678,-0.19164c0.35064,-1.38763 -0.64475,-3.47612 -1.36487,-4.67289c-2.10383,-3.49724 -6.36556,-4.457 -10.34875,-4.18479c-4.81227,1.75996 -7.31671,4.30056 -8.77743,9.01882l11.72427,0.03051l0,-0.00001z"
         id="svg_27"
         stroke="null" />
      <path
         fill="#2A435B"
         d="m636.58385,465.62463c3.7112,-0.0704 7.4224,-0.05867 11.13277,0.03598c-0.29493,3.81325 -0.14255,9.48736 -0.13681,13.4414c-0.03277,6.81378 0.01802,13.62835 0.15238,20.44057c3.69891,-4.08389 13.05719,-13.87709 17.3435,-16.90813c3.84883,-0.30819 8.51445,-0.1408 12.37558,-0.03442c-1.11991,1.22102 -2.30864,2.37947 -3.52769,3.50975c-4.57878,4.24737 -8.70944,8.86316 -13.14731,13.24428c3.19097,4.97795 9.37794,12.55125 13.1088,17.40248l6.16075,7.59677c-3.36875,0.3207 -8.95357,0.2284 -12.49191,0.26595c-4.5624,-4.35531 -9.36729,-12.76166 -14.49251,-17.69425c-1.40173,1.59179 -3.89389,3.79604 -5.54222,5.49264c-0.01802,4.08389 -0.01065,8.16856 0.02294,12.25245l-10.87553,-0.0923l-0.22365,-38.14107c-0.02949,-6.47978 -0.25888,-14.43167 0.14091,-20.81211l0,0.00001z"
         id="svg_28"
         stroke="null" />
      <path
         fill="#2A435B"
         d="m247.93705,481.67859c10.95827,-0.47323 19.31379,1.03564 22.47691,12.16719c-3.09185,0.83852 -6.40243,1.14749 -9.59422,1.50105l-0.22284,-0.50139c-1.12401,-2.57111 -1.65079,-3.15776 -3.93567,-4.89738c-2.44874,-0.39188 -4.38544,-0.52095 -6.8014,-0.38954c-2.41433,0.13141 -5.99526,2.07441 -5.24729,4.71122c1.29277,4.55478 10.46509,4.16133 14.3344,5.35184c2.72728,0.83931 4.9712,1.28673 7.24953,3.02244c5.69214,3.97751 6.10586,12.36352 1.88018,17.47679c-2.99517,3.62474 -6.62445,4.74876 -11.30072,5.31743c-10.39791,0.25813 -20.97195,-0.58978 -23.60174,-12.2986c3.53096,-1.0591 6.3672,-1.2265 10.01778,-1.4064c2.63552,4.93571 5.57663,5.97135 11.48915,5.62249c4.98021,0.38563 7.84513,-6.03158 3.31468,-7.90261c-9.2231,-3.80699 -26.21842,-2.61256 -23.77051,-17.16235c1.04946,-6.23886 7.20202,-9.64067 13.71177,-10.61217l-0.00001,-0.00001z"
         id="svg_29"
         stroke="null" />
      <path
         fill="#2A435B"
         d="m489.72528,482.54918c10.71496,-0.24639 23.78526,-0.24874 34.47318,0.0438c0.18105,2.42874 0.09913,5.22356 0.08684,7.68516c-1.07322,1.8507 -5.80684,7.24556 -7.51169,9.28868c-4.44688,5.32525 -8.83068,10.69821 -13.15058,16.1181c5.81421,0.38797 15.23475,0.1408 21.27344,0.16817c0.02949,1.56754 0.4555,8.10286 -0.41126,8.92965c-11.44655,-0.38641 -23.89913,-0.00391 -35.50625,-0.16583c-0.12207,-7.15326 -0.50056,-7.25651 4.28631,-12.93531c5.66019,-6.71366 11.32448,-13.53448 16.96009,-20.27787c-6.6736,-0.27768 -13.87808,-0.16426 -20.59346,-0.16974c0.05899,-2.89416 0.09012,-5.78909 0.09339,-8.68482l-0.00001,0.00001z"
         id="svg_30"
         stroke="null" />
      <path
         fill="#2A435B"
         d="m277.67907,482.63366c8.91753,-0.34104 26.36589,-0.52251 35.04583,0.05163c0.11551,2.74867 -0.05899,5.301 -0.20727,8.03793c-6.03295,8.01212 -14.97423,16.73839 -20.45173,24.99378c7.04226,0.29802 14.25657,-0.15957 21.34226,0.22215c0.13108,2.09553 0.51613,6.60181 -0.01393,8.47284l-0.75453,0.16505l-35.11055,0.00548c-0.01393,-2.75571 0.14337,-5.0726 0.33917,-7.80562c1.49349,-2.22224 4.50259,-5.44492 6.30658,-7.65778c4.88764,-5.99873 9.81133,-11.91923 14.98161,-17.69972c-5.86255,-0.48653 -15.08893,-0.15879 -21.29638,-0.23466c0.07455,-2.1714 0.44158,-6.66282 -0.18105,-8.55106l-0.00001,-0.00002z"
         id="svg_31"
         stroke="null" />
      <path
         fill="#2A435B"
         d="m156.65551,471.82438c3.06645,-0.12515 6.33279,-0.08213 9.41563,-0.09152l0.00328,11.0197c3.40562,-0.08682 6.81206,-0.11498 10.21849,-0.08448c-0.0041,2.89729 0.01311,5.79379 0.04997,8.69107c-3.39005,-0.01956 -6.98492,-0.17756 -10.39053,-0.27768c0.00737,4.90442 -0.89462,21.57476 1.58361,24.562c2.40859,1.27969 5.78636,0.81036 8.60048,0.6899c0.136,2.22068 0.12125,4.74485 0.16221,6.99056c-0.00655,0.64923 -0.0385,0.58978 -0.20727,1.23354c-3.9963,1.84522 -15.41745,0.74309 -18.56172,-2.83236c-3.03778,-3.45421 -2.03501,-9.39115 -2.02109,-13.61036l-0.02867,-16.81974c-2.20296,-0.02268 -4.54765,-0.14001 -6.76126,-0.21354c-0.09012,-2.54686 0.05407,-5.77971 0.09176,-8.37663l6.90053,0.11968c-0.03769,-3.74598 0.46533,-7.2964 0.94459,-11.00014l-0.00001,0z"
         id="svg_32"
         stroke="null" />
      <path
         fill="#2A435B"
         d="m429.32779,482.02511c1.16415,-0.13063 2.98534,-0.05632 4.20766,-0.04302c0.10159,3.35096 0.11797,6.70349 0.04915,10.05602c-16.12118,-0.28394 -15.18478,6.33898 -15.16921,19.22658c0.00492,4.23016 -0.29903,8.63867 0.01966,12.89073c-1.93015,-0.00235 -10.25864,0.4396 -11.18603,-0.57805c0.12125,-13.55638 0.13026,-27.11433 0.02785,-40.6715c3.4302,-0.19555 7.07913,-0.08135 10.52899,-0.04146c0.07046,2.33644 0.09585,4.67445 0.07619,7.01168c3.84637,-4.93258 4.78032,-6.84272 11.44573,-7.85099l0.00001,0.00001z"
         id="svg_33"
         stroke="null" />
      <path
         fill="#2A435B"
         d="m140.29429,482.03293c1.3067,-0.12906 2.91161,-0.00939 4.24781,0.04302c-0.00737,3.38303 0.01311,6.76607 0.05981,10.1491c-15.90572,-0.81662 -15.42072,6.70975 -15.06353,18.81906c0.12125,4.13786 0.03031,8.73879 0.02294,12.9095c-3.45723,0.07118 -6.81943,0.15175 -10.27994,0.07744l-0.24659,-0.176c-0.33835,-1.59883 -0.19089,-14.55057 -0.15812,-16.80723c0.11715,-7.99648 -0.36129,-16.26046 -0.21055,-24.19045c3.30075,-0.08526 6.86531,-0.02581 10.18654,-0.02347c0.18023,1.47915 0.24741,3.16402 0.34408,4.66585c4.5411,-3.51132 5.45046,-4.19262 11.09755,-5.46683l0,0.00001z"
         id="svg_34"
         stroke="null" />
    </g>
  </g>
</svg>
